<svg opacity="0.7" width="126" height="57" viewBox="0 0 126 57" fill="none" xmlns="http://www.w3.org/2000/svg">
<g clip-path="url(#clip0_977_179)">
<path d="M115.284 21.3259C121.163 21.3259 125.929 16.5519 125.929 10.6629C125.929 4.77396 121.163 0 115.284 0C109.405 0 104.64 4.77396 104.64 10.6629C104.64 16.5519 109.405 21.3259 115.284 21.3259Z" fill="#FF6700"/>
<path d="M65.0879 0L55.1561 33.5358L45.3466 0H33.8669L24.097 33.3987L14.2048 0H0L18.0566 57H29.6947L39.5761 23.0748L49.5188 57H61.0741L79.2135 0H65.0879Z" fill="#0F1FEA"/>
<path d="M100.959 37.8257C100.88 38.5937 100.707 39.333 100.441 40.0542C100.002 41.2802 99.2963 42.3945 98.3244 43.3681C95.8333 45.849 92.2911 46.6171 89.1413 45.6615L96.978 37.8293L108.778 26.0413C108.011 24.8152 107.101 23.6721 106.05 22.6047C104.984 21.5374 103.839 20.6251 102.619 19.857C101.539 19.1646 100.394 18.5841 99.2171 18.1297C92.0103 15.2557 83.4536 16.7342 77.6075 22.5867C74.0653 26.135 72.107 30.6858 71.7795 35.3339C71.6535 36.8881 71.7183 38.4747 71.9667 40.0289C72.3878 42.6829 73.3454 45.2865 74.8357 47.6268C75.6204 48.8528 76.5276 49.9959 77.5787 51.0633C78.6443 52.1162 79.789 53.043 80.9949 53.811C88.7669 58.7873 99.2207 57.893 106.021 51.0957C109.124 47.9874 111.003 44.1109 111.662 40.0758C111.788 39.3221 111.849 38.5829 111.881 37.8293H100.959V37.8257ZM82.7192 35.3447C83.018 33.4912 83.8784 31.7171 85.3039 30.2891C87.7805 27.8082 91.3371 27.0401 94.4726 27.9957L82.9856 39.47C82.5932 38.1358 82.4996 36.7078 82.7192 35.3411V35.3447Z" fill="#0F1FEA"/>
</g>
<defs>
<clipPath id="clip0_977_179">
<rect width="126" height="57" fill="white"/>
</clipPath>
</defs>
</svg>
