<svg width="109" height="79" viewBox="0 0 109 79" fill="none" xmlns="http://www.w3.org/2000/svg">
<path d="M17.6716 48.6195L16.406 48.983L18.8149 57.3706L20.0806 57.0071L17.6716 48.6195Z" fill="#989898"/>
<mask id="mask0_28_5" style="mask-type:luminance" maskUnits="userSpaceOnUse" x="0" y="0" width="109" height="79">
<path d="M108.165 0H0V78.722H108.165V0Z" fill="white"/>
</mask>
<g mask="url(#mask0_28_5)">
<path d="M22.978 49.3689L23.26 50.3529L19.823 51.3379L19.541 50.3539L22.978 49.3689ZM20.031 48.5829L21.256 48.2319L22.963 54.1839C23.0047 54.37 23.0936 54.5421 23.221 54.6839C23.3141 54.7772 23.4368 54.8349 23.568 54.8469C23.6992 54.8563 23.8309 54.8421 23.957 54.8049C24.0436 54.7806 24.1279 54.7488 24.209 54.7099L24.372 54.6279L24.883 55.5759C24.7943 55.6402 24.7007 55.6973 24.603 55.7469C24.4506 55.8252 24.2908 55.8882 24.126 55.9349C23.8191 56.0308 23.4952 56.0601 23.176 56.0209C22.8684 55.9829 22.5782 55.8572 22.34 55.6589C22.0784 55.4288 21.8935 55.1242 21.81 54.7859L20.031 48.5829Z" fill="#989898"/>
<path d="M32.588 48.276L31.533 48.791C31.4423 48.6579 31.3289 48.5418 31.198 48.448C31.0512 48.3437 30.882 48.2752 30.704 48.248C30.4791 48.2167 30.25 48.2368 30.034 48.307C29.7255 48.3842 29.4469 48.5517 29.234 48.788C29.145 48.8785 29.0817 48.9909 29.0504 49.1139C29.0192 49.2369 29.0211 49.366 29.056 49.488C29.0807 49.5858 29.1279 49.6765 29.1936 49.7531C29.2594 49.8296 29.342 49.8898 29.435 49.929C29.7053 50.0237 29.9931 50.0578 30.278 50.029L31.345 49.971C31.8488 49.9185 32.3573 50.0043 32.816 50.219C32.999 50.3199 33.159 50.4577 33.286 50.6237C33.413 50.7896 33.5043 50.98 33.554 51.183C33.6625 51.5438 33.6495 51.9303 33.517 52.283C33.3705 52.6572 33.126 52.985 32.809 53.232C32.4332 53.5283 32.0006 53.7444 31.538 53.867C30.9388 54.0683 30.2925 54.0826 29.685 53.908C29.4248 53.8236 29.1851 53.6859 28.9811 53.5038C28.7771 53.3216 28.6132 53.099 28.5 52.85L29.632 52.33C29.7696 52.5961 30.004 52.7994 30.287 52.898C30.6034 52.9893 30.9401 52.9816 31.252 52.876C31.5961 52.7961 31.907 52.6116 32.142 52.348C32.2312 52.2536 32.2948 52.1381 32.327 52.0123C32.3592 51.8865 32.3589 51.7546 32.326 51.629C32.3014 51.5347 32.2562 51.447 32.1938 51.3722C32.1314 51.2974 32.0533 51.2372 31.965 51.196C31.7265 51.0942 31.4657 51.0559 31.208 51.085L30.075 51.157C29.5653 51.2128 29.0503 51.1201 28.592 50.89C28.4097 50.7822 28.2505 50.6393 28.1238 50.4695C27.9971 50.2997 27.9054 50.1065 27.854 49.901C27.7459 49.5523 27.7572 49.1775 27.886 48.836C28.0257 48.4814 28.2577 48.1707 28.558 47.936C28.9095 47.6568 29.3145 47.4526 29.748 47.336C30.3082 47.1412 30.9165 47.1342 31.481 47.316C31.9516 47.4955 32.3449 47.8336 32.593 48.272" fill="#989898"/>
<path d="M35.594 48.517L36.665 52.253L35.441 52.605L33.035 44.215L34.243 43.869L35.143 46.99L35.221 46.967C35.2657 46.597 35.4199 46.2487 35.664 45.967C35.9597 45.6503 36.3424 45.428 36.764 45.328C37.1557 45.2056 37.5722 45.1853 37.974 45.269C38.3517 45.356 38.6935 45.5571 38.953 45.845C39.2633 46.2 39.4847 46.6236 39.599 47.081L40.746 51.081L39.522 51.432L38.415 47.58C38.3276 47.1816 38.0892 46.8325 37.75 46.606C37.5843 46.5121 37.4005 46.4546 37.2108 46.4373C37.0211 46.4201 36.8299 46.4435 36.65 46.506C36.3782 46.579 36.1292 46.7193 35.926 46.914C35.7332 47.1024 35.6003 47.3435 35.544 47.607C35.483 47.9093 35.5003 48.2232 35.594 48.517Z" fill="#989898"/>
<path d="M44.278 50.221C43.9069 50.333 43.5158 50.3627 43.132 50.308C42.781 50.2576 42.4515 50.1085 42.182 49.878C41.8977 49.621 41.6958 49.2856 41.602 48.914C41.5023 48.6119 41.4864 48.2884 41.556 47.978C41.6261 47.7138 41.764 47.4725 41.956 47.278C42.1605 47.0707 42.3935 46.8935 42.648 46.752C42.9168 46.6002 43.1943 46.4643 43.479 46.345L44.367 45.974C44.5417 45.9106 44.7016 45.8123 44.837 45.685C44.8809 45.6363 44.9106 45.5766 44.9227 45.5122C44.9349 45.4478 44.9291 45.3813 44.906 45.32L44.897 45.292C44.8632 45.1373 44.7978 44.9913 44.7051 44.8629C44.6124 44.7346 44.4942 44.6267 44.358 44.546C44.2052 44.4755 44.04 44.4358 43.8718 44.4293C43.7036 44.4228 43.5358 44.4495 43.378 44.508C43.0272 44.5874 42.7127 44.7813 42.484 45.059C42.3141 45.2748 42.2047 45.5319 42.167 45.804L40.942 45.872C40.958 45.4829 41.073 45.1043 41.276 44.772C41.4711 44.4608 41.7314 44.1957 42.039 43.995C42.3596 43.7857 42.7098 43.6259 43.078 43.521C43.3479 43.4462 43.6246 43.399 43.904 43.38C44.2033 43.3602 44.5037 43.3941 44.791 43.48C45.0954 43.5722 45.3709 43.7413 45.591 43.971C45.8628 44.2691 46.0551 44.6309 46.15 45.023L47.35 49.201L46.15 49.544L45.903 48.684L45.854 48.697C45.8124 48.8982 45.737 49.0909 45.631 49.267C45.5016 49.4825 45.3319 49.6709 45.131 49.822C44.8769 50.0114 44.5887 50.1499 44.282 50.23M44.266 49.171C44.5709 49.0935 44.8506 48.9384 45.078 48.721C45.2714 48.5335 45.4098 48.2966 45.478 48.036C45.5419 47.7885 45.5381 47.5285 45.467 47.283L45.235 46.472C45.1779 46.5513 45.1037 46.6169 45.018 46.664C44.8897 46.7452 44.756 46.8176 44.618 46.881C44.467 46.951 44.318 47.02 44.175 47.081L43.813 47.239C43.5989 47.3295 43.3953 47.4431 43.206 47.578C43.0447 47.6901 42.9144 47.8411 42.827 48.017C42.7478 48.1998 42.7396 48.4055 42.804 48.594C42.8348 48.7297 42.9 48.8552 42.9934 48.9583C43.0867 49.0615 43.2051 49.1389 43.337 49.183C43.6385 49.2732 43.9604 49.2684 44.259 49.169" fill="#989898"/>
<path d="M47.8143 39.9754L46.59 40.327L48.999 48.7146L50.2233 48.363L47.8143 39.9754Z" fill="#989898"/>
<path d="M50.7093 39.1463L49.485 39.4979L51.8939 47.8855L53.1183 47.5339L50.7093 39.1463Z" fill="#989898"/>
<path d="M59 39.0409L59.282 40.0239L55.845 41.0089L55.563 40.0259L59 39.0409ZM56.053 38.2549L57.278 37.9039L58.984 43.8559C59.026 44.0421 59.1152 44.2142 59.243 44.3559C59.336 44.4493 59.4588 44.507 59.59 44.5189C59.7208 44.5282 59.8521 44.5143 59.978 44.4779C60.0649 44.4516 60.1496 44.4181 60.231 44.3779L60.394 44.2959L60.906 45.2439C60.8168 45.3075 60.7233 45.3646 60.626 45.4149C60.4731 45.4929 60.313 45.5558 60.148 45.6029C59.8407 45.6988 59.5165 45.7281 59.197 45.6889C58.8897 45.6509 58.5999 45.5252 58.362 45.3269C58.1001 45.0971 57.915 44.7924 57.832 44.4539L56.053 38.2549Z" fill="#989898"/>
<path d="M64.047 44.553C63.6758 44.6647 63.2847 44.694 62.901 44.639C62.5497 44.5897 62.2199 44.4405 61.951 44.209C61.6663 43.9523 61.4644 43.6168 61.371 43.245C61.2716 42.9432 61.2553 42.6202 61.324 42.31C61.3945 42.046 61.5323 41.8048 61.724 41.61C61.9289 41.4027 62.1622 41.2255 62.417 41.084C62.6856 40.9318 62.9631 40.7959 63.248 40.677C63.613 40.526 63.908 40.401 64.135 40.305C64.31 40.2421 64.4703 40.1441 64.606 40.017C64.6496 39.9682 64.6791 39.9084 64.6912 39.8441C64.7034 39.7798 64.6978 39.7134 64.675 39.652L64.666 39.623C64.6322 39.4683 64.5668 39.3223 64.4741 39.1939C64.3814 39.0656 64.2632 38.9577 64.127 38.877C63.8181 38.7356 63.4659 38.7219 63.147 38.839C62.7958 38.9182 62.4812 39.1125 62.253 39.391C62.0823 39.6063 61.9728 39.8637 61.936 40.136L60.71 40.204C60.727 39.8151 60.8419 39.4367 61.044 39.104C61.2399 38.7934 61.5001 38.5285 61.807 38.327C62.1275 38.1172 62.4783 37.9577 62.847 37.854C63.1168 37.7789 63.3936 37.7313 63.673 37.712C63.9717 37.6906 64.2717 37.7228 64.559 37.807C64.8637 37.8987 65.1393 38.0679 65.359 38.298C65.6307 38.5958 65.8229 38.9573 65.918 39.349L67.118 43.528L65.918 43.871L65.671 43.011L65.622 43.025C65.5801 43.2258 65.5047 43.4182 65.399 43.594C65.2696 43.8094 65.0998 43.9979 64.899 44.149C64.6448 44.3384 64.3566 44.4772 64.05 44.558M64.034 43.498C64.3388 43.4202 64.6185 43.2653 64.846 43.048C65.0401 42.861 65.1785 42.6239 65.246 42.363C65.3103 42.1156 65.3068 41.8556 65.236 41.61L65 40.794C64.9424 40.8733 64.868 40.9389 64.782 40.986C64.6539 41.0672 64.5202 41.1394 64.382 41.202C64.2307 41.2727 64.0834 41.3393 63.94 41.402L63.577 41.561C63.363 41.6506 63.1597 41.7639 62.971 41.899C62.8098 42.0107 62.6794 42.1614 62.592 42.337C62.5074 42.5597 62.5134 42.8067 62.6088 43.025C62.7041 43.2434 62.8812 43.4157 63.102 43.505C63.4037 43.5943 63.7254 43.5891 64.024 43.49" fill="#989898"/>
<path d="M68.765 43.048L66.359 34.659L67.585 34.307L69.985 42.698L68.765 43.048ZM69.28 40.592L68.843 39.1L69.056 39.039L70.8 35.656L72.265 35.235L70.275 39.087L70.084 39.142L69.28 40.592ZM72.739 41.909L69.629 39.564L70.229 38.464L74.245 41.474L72.739 41.909Z" fill="#989898"/>
<path d="M77.693 40.626C77.1377 40.8012 76.5451 40.8216 75.979 40.685C75.4559 40.5462 74.9846 40.2578 74.623 39.855C74.2187 39.395 73.927 38.8472 73.771 38.255C73.5909 37.67 73.5478 37.0513 73.645 36.447C73.7313 35.9 73.9763 35.3905 74.3496 34.9816C74.7229 34.5727 75.2082 34.2825 75.745 34.147C76.0968 34.0467 76.4629 34.0064 76.828 34.028C77.1972 34.051 77.557 34.1533 77.883 34.328C78.242 34.5226 78.5521 34.7962 78.79 35.128C79.0882 35.5482 79.3075 36.0192 79.437 36.518L79.561 36.951L74.561 38.386L74.298 37.468L78.098 36.378C78.018 36.0793 77.8663 35.8047 77.656 35.578C77.4598 35.3703 77.2104 35.2202 76.935 35.144C76.6416 35.0672 76.3325 35.0745 76.043 35.165C75.7229 35.2487 75.435 35.4259 75.216 35.674C75.0129 35.9097 74.875 36.1944 74.816 36.5C74.7558 36.81 74.7709 37.13 74.86 37.433L75.066 38.15C75.1609 38.5233 75.3424 38.869 75.596 39.159C75.8137 39.4013 76.0984 39.5736 76.414 39.654C76.7448 39.7303 77.09 39.7172 77.414 39.616C77.6304 39.5571 77.8353 39.4621 78.02 39.335C78.187 39.2185 78.3266 39.067 78.429 38.891C78.5317 38.7112 78.5922 38.5105 78.606 38.304L79.826 38.18C79.8329 38.5406 79.7501 38.8973 79.585 39.218C79.4095 39.5525 79.1611 39.8434 78.858 40.069C78.508 40.328 78.1125 40.5189 77.692 40.632" fill="#989898"/>
</g>
<path d="M1.22465 69.9799L0 70.3311L2.40589 78.722L3.63055 78.3708L1.22465 69.9799Z" fill="#989898"/>
<mask id="mask1_28_5" style="mask-type:luminance" maskUnits="userSpaceOnUse" x="0" y="0" width="109" height="79">
<path d="M108.165 0H0V78.722H108.165V0Z" fill="white"/>
</mask>
<g mask="url(#mask1_28_5)">
<path d="M8.048 77.242C7.49268 77.4173 6.90006 77.4377 6.334 77.301C5.81085 77.1629 5.33973 76.8743 4.979 76.471C4.5742 76.0114 4.28244 75.4635 4.127 74.871C3.94543 74.2853 3.90196 73.6654 4 73.06C4.08676 72.5138 4.33203 72.0052 4.70536 71.5972C5.0787 71.1892 5.56365 70.8998 6.1 70.765C6.45174 70.6647 6.81788 70.6245 7.183 70.646C7.55167 70.668 7.91138 70.7686 8.238 70.941C8.59666 71.1361 8.90669 71.4095 9.145 71.741C9.44281 72.1611 9.66202 72.6317 9.792 73.13L9.916 73.563L4.913 75L4.65 74.08L8.45 72.99C8.37016 72.6911 8.21803 72.4163 8.007 72.19C7.81106 71.9819 7.56161 71.8318 7.286 71.756C6.99297 71.6788 6.68406 71.686 6.395 71.777C6.07447 71.8603 5.78635 72.038 5.568 72.287C5.36432 72.5216 5.22632 72.8059 5.168 73.111C5.10769 73.4214 5.12278 73.7417 5.212 74.045L5.412 74.762C5.50757 75.1353 5.68945 75.4809 5.943 75.771C6.16093 76.0133 6.44603 76.1853 6.762 76.265C7.09269 76.3418 7.43789 76.329 7.762 76.228C7.97838 76.1691 8.18327 76.0741 8.368 75.947C8.53501 75.8298 8.67484 75.678 8.778 75.502C8.87994 75.3223 8.94041 75.1221 8.955 74.916L10.174 74.791C10.1809 75.1518 10.0984 75.5088 9.934 75.83C9.75762 76.1646 9.50893 76.4556 9.206 76.682C8.85512 76.9393 8.45986 77.1298 8.04 77.244" fill="#989898"/>
<path d="M15.449 69.8351L14.394 70.3501C14.3038 70.2169 14.1903 70.101 14.059 70.0081C13.912 69.9041 13.7429 69.8356 13.565 69.8081C13.34 69.7766 13.1108 69.7972 12.895 69.8681C12.5862 69.9448 12.3076 70.1123 12.095 70.3491C12.0071 70.4392 11.9444 70.5508 11.9131 70.6728C11.8819 70.7947 11.8832 70.9228 11.917 71.0441C11.9416 71.1419 11.9887 71.2328 12.0544 71.3093C12.1202 71.3858 12.2029 71.446 12.296 71.4851C12.5666 71.5799 12.8547 71.6141 13.14 71.5851L14.206 71.5261C14.7097 71.4742 15.2181 71.5599 15.677 71.7741C15.8598 71.8752 16.0198 72.013 16.1468 72.1789C16.2738 72.3448 16.3651 72.5352 16.415 72.7381C16.5235 73.0989 16.5105 73.4853 16.378 73.8381C16.2315 74.212 15.9874 74.5397 15.671 74.7871C15.2952 75.0834 14.8626 75.2995 14.4 75.4221C13.8005 75.6239 13.1538 75.6382 12.546 75.4631C12.2857 75.3803 12.0455 75.2441 11.8409 75.0631C11.6364 74.8821 11.4719 74.6604 11.358 74.4121L12.489 73.8911C12.627 74.157 12.8612 74.3601 13.144 74.4591C13.4603 74.5502 13.7969 74.5429 14.109 74.4381C14.4536 74.357 14.7648 74.1716 15 73.9071C15.0889 73.8125 15.1524 73.697 15.1844 73.5712C15.2164 73.4454 15.2159 73.3136 15.183 73.1881C15.1584 73.0939 15.1133 73.0063 15.0509 72.9316C14.9885 72.8569 14.9103 72.797 14.822 72.7561C14.5838 72.6532 14.3227 72.6149 14.065 72.6451L12.932 72.7161C12.4226 72.7731 11.9075 72.6803 11.45 72.4491C11.2676 72.3415 11.1083 72.1988 10.9814 72.0292C10.8546 71.8596 10.7627 71.6665 10.711 71.4611C10.6035 71.112 10.6147 70.7371 10.743 70.3951C10.883 70.0404 11.1154 69.7296 11.416 69.4951C11.7679 69.2165 12.1728 69.0124 12.606 68.8951C13.1661 68.7015 13.7738 68.6949 14.338 68.8761C14.8088 69.0553 15.2022 69.3935 15.45 69.8321" fill="#989898"/>
<path d="M21.652 68.056L20.6 68.57C20.5085 68.4375 20.3948 68.3218 20.264 68.228C20.1172 68.1237 19.948 68.0552 19.77 68.028C19.5451 67.9967 19.316 68.0168 19.1 68.087C18.7915 68.1642 18.5129 68.3317 18.3 68.568C18.2118 68.6579 18.1489 68.7695 18.1177 68.8916C18.0864 69.0136 18.0879 69.1417 18.122 69.263C18.1466 69.361 18.1938 69.4519 18.2598 69.5285C18.3258 69.605 18.4087 69.6651 18.502 69.704C18.7722 69.799 19.0601 69.8331 19.345 69.804L20.411 69.745C20.9151 69.6929 21.4238 69.7786 21.883 69.993C22.0657 70.0943 22.2255 70.2324 22.3523 70.3985C22.4792 70.5645 22.5703 70.755 22.62 70.958C22.7291 71.3188 22.7158 71.7056 22.582 72.058C22.4363 72.4317 22.1924 72.7593 21.876 73.006C21.5004 73.3026 21.0678 73.5187 20.605 73.641C20.0055 73.8426 19.359 73.8572 18.751 73.683C18.4902 73.5999 18.2496 73.4633 18.0445 73.282C17.8394 73.1007 17.6744 72.8786 17.56 72.63L18.693 72.11C18.8303 72.3758 19.0644 72.5787 19.347 72.677C19.6633 72.7681 19.9999 72.7608 20.312 72.656C20.6561 72.5754 20.9671 72.3911 21.203 72.128C21.2918 72.0332 21.3552 71.9174 21.3872 71.7915C21.4192 71.6656 21.4188 71.5337 21.386 71.408C21.3611 71.3139 21.3159 71.2265 21.2535 71.1519C21.1911 71.0772 21.1131 71.0172 21.025 70.976C20.7868 70.8733 20.5257 70.835 20.268 70.865L19.136 70.937C18.6258 70.9931 18.1103 70.9 17.652 70.669C17.4698 70.5613 17.3107 70.4185 17.184 70.2489C17.0573 70.0793 16.9655 69.8863 16.914 69.681C16.8065 69.3322 16.8177 68.9576 16.946 68.616C17.0858 68.2612 17.3182 67.9503 17.619 67.716C17.9704 67.4366 18.3755 67.2324 18.809 67.116C19.3688 66.9214 19.9767 66.9141 20.541 67.095C21.0116 67.2747 21.4045 67.6132 21.652 68.052" fill="#989898"/>
<path d="M28.717 64.367L29 65.352L25.563 66.336L25.281 65.353L28.717 64.367ZM25.771 63.582L27 63.23L28.7 69.182C28.7418 69.3684 28.8314 69.5407 28.96 69.682C29.052 69.7755 29.1743 69.8333 29.305 69.845C29.4361 69.854 29.5678 69.8398 29.694 69.803C29.7812 69.7775 29.8659 69.744 29.947 69.703L30.109 69.621L30.621 70.57C30.5321 70.6334 30.4389 70.6905 30.342 70.741C30.1884 70.8181 30.028 70.881 29.863 70.929C29.5562 71.0254 29.2322 71.0547 28.913 71.015C28.6056 70.9767 28.3157 70.8507 28.078 70.652C27.8162 70.4224 27.6312 70.1181 27.548 69.78L25.771 63.582Z" fill="#989898"/>
<path d="M32.182 66.1401L33.253 69.8761L32.029 70.2281L29.623 61.8371L30.831 61.4921L31.731 64.6131L31.809 64.5891C31.8537 64.219 32.008 63.8708 32.252 63.5891C32.5476 63.272 32.9303 63.0494 33.352 62.9491C33.7433 62.8264 34.1596 62.8061 34.561 62.8901C34.9388 62.9776 35.2808 63.1786 35.541 63.4661C35.8509 63.8213 36.0722 64.2449 36.187 64.7021L37.334 68.7021L36.11 69.0541L35 65.2001C34.912 64.8019 34.6738 64.453 34.335 64.2261C34.1692 64.1322 33.9854 64.0748 33.7958 64.0576C33.6061 64.0403 33.4149 64.0637 33.235 64.1261C32.964 64.2002 32.7156 64.3404 32.512 64.5341C32.3192 64.722 32.1863 64.9628 32.13 65.2261C32.069 65.5287 32.0862 65.8419 32.18 66.1361" fill="#989898"/>
<path d="M40.866 67.844C40.495 67.9569 40.1037 67.9867 39.72 67.931C39.3689 67.8815 39.0393 67.7326 38.77 67.502C38.4849 67.2452 38.283 66.9093 38.19 66.537C38.09 66.235 38.0738 65.9116 38.143 65.601C38.2136 65.3371 38.3514 65.0959 38.543 64.901C38.7473 64.6937 38.9803 64.5169 39.235 64.376C39.504 64.2237 39.7818 64.0875 40.067 63.968C40.432 63.817 40.727 63.692 40.954 63.597C41.129 63.5336 41.2892 63.4353 41.425 63.308C41.4685 63.259 41.4978 63.199 41.5098 63.1345C41.5218 63.07 41.516 63.0035 41.493 62.942L41.485 62.915C41.4509 62.7605 41.3855 62.6145 41.2928 62.4862C41.2001 62.3579 41.082 62.2499 40.946 62.169C40.6374 62.0268 40.2849 62.0127 39.966 62.13C39.6126 62.2086 39.2957 62.4033 39.066 62.683C38.896 62.8984 38.7865 63.1552 38.749 63.427L37.524 63.495C37.5404 63.106 37.6553 62.7275 37.858 62.395C38.0538 62.0853 38.3136 61.8211 38.62 61.62C38.941 61.4101 39.292 61.2499 39.661 61.145C39.9304 61.0697 40.2069 61.0228 40.486 61.005C40.7849 60.9833 41.0853 61.0151 41.373 61.099C41.6777 61.191 41.9534 61.3606 42.173 61.591C42.4445 61.8891 42.637 62.2504 42.733 62.642L43.933 66.819L42.733 67.163L42.487 66.303L42.437 66.317C42.3957 66.5179 42.3207 66.7103 42.215 66.886C42.0856 67.1018 41.9159 67.2906 41.715 67.442C41.4603 67.6303 41.1722 67.7684 40.866 67.849M40.85 66.79C41.1549 66.7119 41.4345 66.5566 41.662 66.339C41.8559 66.1523 41.9943 65.9156 42.062 65.655C42.1258 65.408 42.1223 65.1483 42.052 64.903L41.82 64.091C41.7628 64.171 41.6883 64.237 41.602 64.284C41.4737 64.3647 41.34 64.4365 41.202 64.499C41.052 64.571 40.902 64.638 40.76 64.699C40.618 64.76 40.495 64.816 40.398 64.857C40.184 64.9471 39.9807 65.0608 39.792 65.196C39.6307 65.3081 39.5003 65.4591 39.413 65.635C39.3335 65.8181 39.3253 66.0242 39.39 66.213C39.4206 66.3486 39.4856 66.4739 39.5788 66.5769C39.672 66.6799 39.7902 66.7571 39.922 66.801C40.2238 66.8913 40.5461 66.8864 40.845 66.787" fill="#989898"/>
<path d="M45.737 62.2541L46.808 65.9901L45.583 66.3421L43.783 60.0491L44.959 59.7121L45.252 60.7351L45.33 60.7131C45.3764 60.3418 45.534 59.9932 45.782 59.7131C46.0739 59.3987 46.4514 59.1766 46.868 59.0741C47.2567 58.9534 47.67 58.9348 48.068 59.0201C48.4463 59.1084 48.7879 59.3117 49.046 59.6021C49.3528 59.9564 49.5723 60.3776 49.687 60.8321L50.835 64.8321L49.61 65.1831L48.51 61.3281C48.4207 60.932 48.1831 60.5852 47.846 60.3591C47.6826 60.2642 47.5007 60.2055 47.3126 60.1871C47.1246 60.1686 46.9347 60.1908 46.756 60.2521C46.492 60.3227 46.2509 60.4605 46.056 60.6521C45.8689 60.8405 45.7413 61.0797 45.689 61.3401C45.6314 61.6426 45.6503 61.9547 45.744 62.2481" fill="#989898"/>
<path d="M58.361 62.8C57.8853 62.9448 57.3829 62.979 56.892 62.9C56.4487 62.8285 56.0315 62.6435 55.681 62.363C55.3372 62.0837 55.0836 61.709 54.952 61.286L56.181 60.935C56.2433 61.105 56.341 61.26 56.4675 61.3896C56.594 61.5192 56.7465 61.6205 56.915 61.687C57.2778 61.8352 57.6808 61.8525 58.055 61.736C58.3577 61.6549 58.6323 61.4924 58.849 61.266C59.0556 61.0465 59.1984 60.7747 59.262 60.48C59.3299 60.162 59.3155 59.8319 59.22 59.521C59.1344 59.201 58.9681 58.9083 58.737 58.671C58.5203 58.4504 58.2475 58.2931 57.948 58.216C57.634 58.1367 57.3044 58.1436 56.994 58.236C56.7334 58.3124 56.4872 58.4309 56.265 58.587C56.0566 58.7239 55.8785 58.9023 55.742 59.111L54.533 59.271L53.793 54.907L58.4 53.584L58.711 54.67L55.152 55.691L55.558 58.114L55.608 58.101C55.7468 57.8722 55.9301 57.6736 56.147 57.517C56.3948 57.3284 56.6761 57.1886 56.976 57.105C57.4541 56.9587 57.9636 56.949 58.447 57.077C58.9139 57.2046 59.3384 57.4542 59.677 57.8C60.0416 58.1755 60.3025 58.6393 60.434 59.146C60.591 59.6513 60.6083 60.1897 60.484 60.704C60.362 61.1962 60.1078 61.6457 59.749 62.004C59.3617 62.385 58.882 62.659 58.357 62.799" fill="#989898"/>
<path d="M65.829 60.5351L64.024 54.2441L65.2 53.9061L65.494 54.9301L65.572 54.9081C65.5963 54.5392 65.7399 54.1882 65.981 53.9081C66.2439 53.616 66.5867 53.4074 66.967 53.3081C67.3381 53.1881 67.7372 53.1853 68.11 53.3001C68.4551 53.4179 68.7568 53.6367 68.976 53.9281L69.041 53.9091C69.0959 53.5312 69.2656 53.1794 69.527 52.9011C69.8219 52.591 70.1978 52.3696 70.612 52.2621C70.8667 52.1787 71.1356 52.1478 71.4025 52.1714C71.6695 52.1949 71.9289 52.2724 72.165 52.3991C72.4225 52.5624 72.6443 52.7759 72.8174 53.0269C72.9904 53.278 73.111 53.5613 73.172 53.8601L74.382 58.0801L73.157 58.4301L71.98 54.3301C71.9465 54.155 71.8739 53.9898 71.7676 53.8467C71.6613 53.7037 71.524 53.5865 71.366 53.5041C71.0773 53.379 70.7534 53.3617 70.453 53.4551C70.2776 53.4946 70.113 53.572 69.9705 53.6816C69.828 53.7913 69.7111 53.9307 69.628 54.0901C69.4755 54.4137 69.4533 54.7835 69.566 55.1231L70.716 59.1351L69.495 59.4841L68.3 55.3001C68.2631 55.1462 68.1946 55.0017 68.0989 54.8756C68.0032 54.7496 67.8823 54.6449 67.744 54.5681C67.6033 54.4944 67.4493 54.4499 67.291 54.4372C67.1328 54.4244 66.9736 54.4438 66.823 54.4941C66.5961 54.5583 66.392 54.6851 66.234 54.8601C66.0717 55.0419 65.9593 55.2628 65.908 55.5011C65.8526 55.7666 65.8653 56.0418 65.945 56.3011L67.058 60.1791L65.829 60.5351Z" fill="#989898"/>
<path d="M74.58 50.166C74.4797 50.1973 74.3742 50.2083 74.2697 50.1984C74.1651 50.1884 74.0636 50.1577 73.971 50.108C73.8806 50.063 73.8006 49.9997 73.736 49.922C73.6715 49.8444 73.6238 49.7541 73.5961 49.6571C73.5683 49.56 73.5611 49.4582 73.5748 49.3581C73.5886 49.2581 73.6231 49.162 73.676 49.076C73.728 48.9849 73.7976 48.9051 73.8806 48.841C73.9637 48.777 74.0587 48.7301 74.16 48.703C74.2606 48.6723 74.3662 48.6617 74.4709 48.6718C74.5756 48.6819 74.6772 48.7126 74.77 48.762C74.8607 48.8068 74.9412 48.87 75.0062 48.9475C75.0712 49.0251 75.1193 49.1153 75.1475 49.2125C75.1757 49.3096 75.1834 49.4116 75.1701 49.5119C75.1567 49.6122 75.1227 49.7086 75.07 49.795C74.9638 49.978 74.7894 50.1114 74.585 50.166M76.049 57.607L74.244 51.314L75.47 50.962L77.27 57.255L76.049 57.607Z" fill="#989898"/>
<path d="M79.092 52.689L80.163 56.425L78.939 56.777L77.134 50.484L78.31 50.147L78.6 51.17L78.678 51.148C78.7245 50.7769 78.8817 50.4285 79.129 50.148C79.421 49.8333 79.799 49.6111 80.216 49.509C80.6048 49.3886 81.018 49.37 81.416 49.455C81.7946 49.5433 82.1366 49.7466 82.395 50.037C82.7018 50.3913 82.9213 50.8126 83.036 51.267L84.184 55.267L82.958 55.618L81.858 51.763C81.7692 51.37 81.5339 51.0256 81.2 50.8C81.0368 50.7052 80.855 50.6465 80.6671 50.6281C80.4792 50.6096 80.2896 50.6317 80.111 50.693C79.8472 50.764 79.6061 50.9018 79.411 51.093C79.2243 51.2817 79.0968 51.5208 79.044 51.781C78.9869 52.0836 79.0058 52.3956 79.099 52.689" fill="#989898"/>
<path d="M89.089 51.0431L88.033 47.3591L89.262 47.0081L91.062 53.2991L89.857 53.6451L89.545 52.5551L89.48 52.5731C89.4298 52.9549 89.272 53.3145 89.025 53.6101C88.7407 53.9424 88.3602 54.1783 87.936 54.2851C87.563 54.399 87.1665 54.4118 86.787 54.3221C86.4166 54.2268 86.0832 54.0227 85.83 53.7361C85.5243 53.3804 85.3052 52.9587 85.19 52.5041L84.043 48.5041L85.268 48.1521L86.368 52.0081C86.4564 52.3883 86.6896 52.719 87.018 52.9301C87.1726 53.0218 87.3449 53.0796 87.5236 53.0994C87.7022 53.1193 87.8831 53.1007 88.054 53.0451C88.2921 52.9744 88.5101 52.8483 88.69 52.6771C88.8891 52.4907 89.0342 52.254 89.11 51.9921C89.1943 51.6804 89.1838 51.3507 89.08 51.0451" fill="#989898"/>
<path d="M93.864 45.687L94.146 46.67L90.709 47.656L90.427 46.673L93.864 45.687ZM90.917 44.9L92.142 44.548L93.849 50.5C93.8907 50.686 93.9796 50.8582 94.107 51C94.2008 51.092 94.3232 51.1491 94.454 51.162C94.5851 51.1707 94.7166 51.1568 94.843 51.121C94.9295 51.0944 95.0138 51.061 95.095 51.021L95.258 50.939L95.77 51.888C95.6804 51.9506 95.5869 52.0074 95.49 52.058C95.3371 52.1359 95.177 52.1989 95.012 52.246C94.705 52.3417 94.3813 52.3713 94.062 52.333C93.7543 52.2947 93.464 52.1687 93.226 51.97C92.9644 51.7398 92.7795 51.4352 92.696 51.097L90.917 44.9Z" fill="#989898"/>
<path d="M99.726 50.953C99.1708 51.1288 98.578 51.1492 98.012 51.012C97.4888 50.874 97.0176 50.5854 96.657 50.182C96.2527 49.722 95.961 49.1742 95.805 48.582C95.6249 47.9966 95.5817 47.3777 95.679 46.773C95.7663 46.227 96.0117 45.7186 96.385 45.3107C96.7582 44.9028 97.2429 44.6133 97.779 44.478C98.1307 44.3778 98.4969 44.3375 98.862 44.359C99.2311 44.3821 99.5909 44.4845 99.917 44.659C100.275 44.8548 100.586 45.1281 100.825 45.459C101.123 45.8795 101.342 46.3509 101.471 46.85L101.596 47.283L96.596 48.717L96.333 47.799L100.133 46.709C100.053 46.4103 99.9014 46.1356 99.691 45.909C99.495 45.7002 99.2452 45.5497 98.969 45.474C98.6762 45.3978 98.3679 45.405 98.079 45.495C97.7587 45.5795 97.4706 45.757 97.251 46.005C97.0471 46.2402 96.9091 46.5252 96.851 46.831C96.7908 47.141 96.8059 47.461 96.895 47.764L97.101 48.481C97.1965 48.8538 97.378 49.199 97.631 49.489C97.8488 49.7317 98.1339 49.904 98.45 49.984C98.7807 50.0609 99.1261 50.0478 99.45 49.946C99.6666 49.8869 99.8718 49.792 100.057 49.665C100.223 49.5482 100.363 49.3972 100.466 49.222C100.568 49.0417 100.629 48.8408 100.643 48.634L101.862 48.511C101.869 48.8712 101.787 49.2276 101.622 49.548C101.446 49.8829 101.197 50.1741 100.894 50.4C100.544 50.6592 100.149 50.8499 99.728 50.962" fill="#989898"/>
<path d="M107.127 43.547L106.073 44.062C105.982 43.9294 105.868 43.8134 105.738 43.719C105.591 43.6145 105.422 43.546 105.244 43.519C105.019 43.4878 104.79 43.5077 104.573 43.577C104.264 43.6543 103.986 43.8217 103.773 44.058C103.684 44.1488 103.622 44.2613 103.59 44.3842C103.559 44.5072 103.561 44.6361 103.596 44.758C103.621 44.8556 103.668 44.9462 103.734 45.0224C103.799 45.0986 103.882 45.1584 103.975 45.197C104.245 45.2924 104.533 45.3266 104.818 45.297L105.884 45.239C106.388 45.187 106.897 45.2727 107.356 45.487C107.539 45.5878 107.699 45.7255 107.826 45.8915C107.953 46.0574 108.044 46.248 108.093 46.451C108.202 46.8118 108.189 47.1984 108.056 47.551C107.91 47.925 107.665 48.2528 107.349 48.5C106.972 48.7951 106.54 49.0111 106.078 49.135C105.478 49.3353 104.832 49.3496 104.224 49.176C103.964 49.0926 103.724 48.9558 103.519 48.7746C103.315 48.5933 103.15 48.3714 103.036 48.123L104.167 47.604C104.305 47.87 104.54 48.0729 104.823 48.171C105.139 48.2618 105.475 48.2541 105.787 48.149C106.131 48.0684 106.442 47.8841 106.678 47.621C106.767 47.5268 106.831 47.4112 106.863 47.2853C106.895 47.1595 106.894 47.0275 106.861 46.902C106.836 46.8078 106.791 46.7201 106.729 46.6452C106.666 46.5704 106.588 46.5102 106.5 46.469C106.262 46.3672 106.001 46.329 105.743 46.358L104.611 46.43C104.101 46.4863 103.586 46.3932 103.128 46.162C102.946 46.0547 102.786 45.912 102.66 45.7423C102.533 45.5727 102.441 45.3795 102.39 45.174C102.282 44.8258 102.293 44.4514 102.421 44.11C102.561 43.7555 102.794 43.4448 103.094 43.21C103.446 42.9309 103.851 42.7267 104.284 42.61C104.844 42.4152 105.453 42.4082 106.017 42.59C106.487 42.7697 106.88 43.1078 107.128 43.546" fill="#989898"/>
</g>
<mask id="mask2_28_5" style="mask-type:luminance" maskUnits="userSpaceOnUse" x="11" y="-1" width="41" height="40">
<path d="M19.773 -0.000127676L11.539 9.14398L43.6277 38.0388L51.8617 28.8947L19.773 -0.000127676Z" fill="white"/>
</mask>
<g mask="url(#mask2_28_5)">
<path d="M22.939 3.75098C19.522 5.25098 15.053 7.39498 11.658 9.01298C14.437 11.784 17.119 14.604 20.838 16.16L20.972 16.012C19.0351 13.0708 16.513 10.5603 13.563 8.63698L13.421 9.93698L18.25 6.97298C19.844 5.95698 21.45 4.96498 23.035 3.92598L22.939 3.75098Z" fill="#989898"/>
<path d="M47.371 33.879C44.352 17.81 29.669 5.557 13.03 9.136L13.042 9.336C30.958 10.636 41.453 16.821 47.371 33.879Z" fill="#989898"/>
</g>
</svg>
