<svg width="8" height="12" viewBox="0 0 8 12" fill="none" xmlns="http://www.w3.org/2000/svg">
<path d="M7.2041 5.83105C7.2041 5.9541 7.18132 6.06803 7.13574 6.17285C7.09473 6.27767 7.02181 6.37793 6.91699 6.47363L1.91309 11.375C1.75814 11.5299 1.56901 11.6074 1.3457 11.6074C1.19076 11.6074 1.04948 11.571 0.921875 11.498C0.798828 11.4251 0.700846 11.3249 0.62793 11.1973C0.555013 11.0742 0.518555 10.9375 0.518555 10.7871C0.518555 10.5638 0.602865 10.3656 0.771484 10.1924L5.24902 5.83105L0.771484 1.46973C0.602865 1.29655 0.518555 1.09831 0.518555 0.875C0.518555 0.720052 0.555013 0.581055 0.62793 0.458008C0.700846 0.334961 0.798828 0.239258 0.921875 0.170898C1.04948 0.0979818 1.19076 0.0615234 1.3457 0.0615234C1.56901 0.0615234 1.75814 0.138997 1.91309 0.293945L6.91699 5.18848C7.01725 5.28418 7.09017 5.38444 7.13574 5.48926C7.18132 5.59408 7.2041 5.70801 7.2041 5.83105Z" fill="black"/>
</svg>
