<?xml version="1.0" encoding="UTF-8"?>
<svg id="Layer_1" data-name="Layer 1" xmlns="http://www.w3.org/2000/svg" xmlns:xlink="http://www.w3.org/1999/xlink" viewBox="0 0 98 98">
  <defs>
    <style>
      .cls-1 {
        fill: url(#linear-gradient);
      }

      .cls-2 {
        fill: #eaebfd;
      }

      .cls-3 {
        fill: #e2e1ff;
      }

      .cls-4 {
        fill: #fff;
      }

      .cls-5 {
        fill: #9ea8f7;
      }

      .cls-6 {
        fill: none;
        stroke: #e2e1ff;
        stroke-linecap: round;
        stroke-width: 2px;
      }

      .cls-7 {
        fill: url(#radial-gradient);
      }
    </style>
    <radialGradient id="radial-gradient" cx="-485.82" cy="447.42" fx="-485.82" fy="447.42" r="1" gradientTransform="translate(-12625.46 68698.73) rotate(51.14) scale(93.74 -118.35)" gradientUnits="userSpaceOnUse">
      <stop offset="0" stop-color="#002fff"/>
      <stop offset="1" stop-color="#1734b6"/>
    </radialGradient>
    <linearGradient id="linear-gradient" x1="39.59" y1="85.5" x2="39.59" y2="30.5" gradientUnits="userSpaceOnUse">
      <stop offset="0" stop-color="#fff" stop-opacity=".5"/>
      <stop offset=".02" stop-color="#fcfcff" stop-opacity=".54"/>
      <stop offset=".07" stop-color="#f4f3ff" stop-opacity=".66"/>
      <stop offset=".14" stop-color="#edebff" stop-opacity=".77"/>
      <stop offset=".22" stop-color="#e7e5ff" stop-opacity=".85"/>
      <stop offset=".31" stop-color="#e3e0ff" stop-opacity=".92"/>
      <stop offset=".42" stop-color="#e0ddff" stop-opacity=".97"/>
      <stop offset=".57" stop-color="#dedbff" stop-opacity=".99"/>
      <stop offset="1" stop-color="#dedbff"/>
    </linearGradient>
  </defs>
  <path class="cls-7" d="M36.59,20.5c0-4.42,3.58-8,8-8h42.81c4.42,0,8,3.58,8,8v57c0,4.42-3.58,8-8,8H44.59c-4.42,0-8-3.58-8-8V20.5Z"/>
  <path class="cls-5" d="M89.9,40.07l-4.46,1.38c-.25,.08-.53,.05-.76-.07-.23-.12-.41-.33-.49-.59-.08-.25-.05-.53,.07-.76,.12-.23,.33-.41,.59-.49l1.24-.39-.92-2.7c-.19,.02-.39,.04-.58,.04-1.09,0-2.15-.36-3.02-1.02-.87-.66-1.5-1.59-1.79-2.64l-.13-.38,1-2.97h8.54l.2,.61c.32,1.08,.26,2.23-.17,3.27-.42,1.04-1.19,1.9-2.17,2.45l.93,2.74,1.3-.4c.25-.08,.53-.05,.76,.07,.23,.12,.41,.33,.49,.59,.08,.25,.05,.53-.07,.76-.12,.23-.34,.41-.59,.49h0Zm-8.65-12.57h7.27l-.97-2.87c-.23-.75-.74-1.38-1.43-1.75-.69-.38-1.49-.47-2.25-.27l-3.52,.98c.14,.18,.27,.37,.39,.57,.56,1.02,.74,2.2,.51,3.34Zm-4.08-3.82l-3.85-1.07c-.75-.21-1.55-.12-2.24,.26-.68,.37-1.2,.99-1.43,1.73l-.97,2.9h10.54l.02-.06c.12-.38,.15-.78,.11-1.18-.04-.4-.16-.78-.36-1.13-.19-.35-.45-.66-.77-.91-.31-.25-.67-.43-1.06-.54Zm-9.39,6.47c-.3,1.07-.24,2.22,.19,3.25,.43,1.03,1.19,1.89,2.17,2.43l-.94,2.73-1.31-.41c-.13-.04-.26-.05-.39-.04-.13,.01-.26,.05-.38,.11-.12,.06-.22,.14-.3,.24-.08,.1-.15,.22-.19,.34-.04,.13-.05,.26-.04,.39,.01,.13,.05,.26,.11,.37,.06,.12,.14,.22,.24,.3s.22,.15,.34,.19l4.46,1.38c.25,.08,.53,.05,.76-.07,.23-.12,.41-.33,.49-.59,.08-.25,.05-.53-.07-.76-.12-.23-.33-.41-.59-.49l-1.24-.38,.94-2.7c.19,.02,.37,.04,.56,.04,1.08,0,2.13-.36,3-1.01,.86-.65,1.49-1.56,1.79-2.6l1.15-3.39h-10.54l-.22,.66Zm14.37-8.76c.12,.06,.25,.09,.38,.1,.13,0,.26,0,.39-.05,.13-.04,.24-.11,.34-.2,.1-.09,.18-.19,.24-.31l1-2c.12-.24,.14-.51,.05-.76-.08-.25-.26-.46-.5-.58-.24-.12-.51-.14-.76-.05s-.46,.26-.58,.5l-1,2c-.06,.12-.1,.25-.11,.38-.01,.13,0,.26,.05,.39,.04,.13,.11,.24,.19,.34,.09,.1,.19,.18,.31,.24Zm-8.45-.45c.12,.24,.33,.42,.58,.5,.12,.04,.26,.06,.39,.05,.13,0,.26-.04,.38-.1,.12-.06,.22-.14,.31-.24,.09-.1,.15-.21,.19-.34,.04-.12,.06-.26,.05-.39,0-.13-.04-.26-.1-.38l-1-2c-.06-.12-.14-.22-.24-.31-.1-.09-.21-.15-.34-.19-.25-.08-.53-.06-.76,.05-.24,.12-.42,.33-.5,.58-.08,.25-.06,.53,.05,.76l1,2Zm4.9-3.45c-.27,0-.52,.11-.71,.29-.19,.19-.29,.44-.29,.71v2c0,.27,.11,.52,.29,.71,.19,.19,.44,.29,.71,.29s.52-.11,.71-.29c.19-.19,.29-.44,.29-.71v-2c0-.27-.11-.52-.29-.71-.19-.19-.44-.29-.71-.29Z"/>
  <path class="cls-1" d="M17.59,38.5c0-4.42,3.58-8,8-8h28c4.42,0,8,3.58,8,8v47H25.59c-4.42,0-8-3.58-8-8V38.5Z"/>
  <path class="cls-4" d="M33.59,71.5c0-2.21,1.79-4,4-4h5c2.21,0,4,1.79,4,4v14h-13v-14Z"/>
  <path class="cls-2" d="M2.59,55.5c0-1.66,1.34-3,3-3H23.59c1.66,0,3,1.34,3,3v4c0,1.66-1.34,3-3,3H5.59c-1.66,0-3-1.34-3-3v-4Z"/>
  <path class="cls-3" d="M9.56,62.5h10.06c0,1.1-.9,2-2,2h-6.06c-1.1,0-2-.9-2-2h0Z"/>
  <path class="cls-6" d="M14.09,52.5l-.5-7"/>
  <path class="cls-3" d="M13.59,44.5c-.55,0-1,.45-1,1s.45,1,1,1v-2Zm0,2h4v-2h-4v2Z"/>
</svg>