<?xml version="1.0" encoding="UTF-8"?>
<svg id="Layer_1" data-name="Layer 1" xmlns="http://www.w3.org/2000/svg" xmlns:xlink="http://www.w3.org/1999/xlink" viewBox="0 0 98 98">
  <defs>
    <style>
      .cls-1 {
        fill: url(#linear-gradient);
      }

      .cls-2 {
        fill: #fff;
      }

      .cls-3 {
        fill: #9ea8f7;
      }

      .cls-4 {
        fill: url(#radial-gradient);
      }
    </style>
    <radialGradient id="radial-gradient" cx="-720.19" cy="448.27" fx="-720.19" fy="448.27" r="1" gradientTransform="translate(7768.46 89202.44) rotate(46.25) scale(96.9 -125.08)" gradientUnits="userSpaceOnUse">
      <stop offset="0" stop-color="#002fff"/>
      <stop offset="1" stop-color="#1734b6"/>
    </radialGradient>
    <linearGradient id="linear-gradient" x1="31.63" y1="90" x2="31.63" y2="43" gradientUnits="userSpaceOnUse">
      <stop offset="0" stop-color="#fff" stop-opacity=".5"/>
      <stop offset=".02" stop-color="#fcfcff" stop-opacity=".54"/>
      <stop offset=".07" stop-color="#f4f3ff" stop-opacity=".66"/>
      <stop offset=".14" stop-color="#edebff" stop-opacity=".77"/>
      <stop offset=".22" stop-color="#e7e5ff" stop-opacity=".85"/>
      <stop offset=".31" stop-color="#e3e0ff" stop-opacity=".92"/>
      <stop offset=".42" stop-color="#e0ddff" stop-opacity=".97"/>
      <stop offset=".57" stop-color="#dedbff" stop-opacity=".99"/>
      <stop offset="1" stop-color="#dedbff"/>
    </linearGradient>
  </defs>
  <path class="cls-4" d="M20.63,28c0-4.42,3.58-8,8-8h51c4.42,0,8,3.58,8,8v54c0,4.42-3.58,8-8,8H28.63c-4.42,0-8-3.58-8-8V28Z"/>
  <path class="cls-3" d="M47.2,41.06h-8.34l14.44,16.6-6.1-16.6Z"/>
  <path class="cls-3" d="M57.7,41.06h-7.7l4.09,16.6,3.61-16.6Z"/>
  <path class="cls-3" d="M68.93,41.06h-8.34l-5.93,16.6,14.28-16.6Z"/>
  <path class="cls-3" d="M46.07,38.82h-7.94l4.65-6.34,3.29,6.34Z"/>
  <path class="cls-3" d="M52.41,32h-7.3l3.21,6.58,4.09-6.58Z"/>
  <path class="cls-3" d="M57.7,38.98h-7.54l3.93-5.93,3.61,5.93Z"/>
  <path class="cls-3" d="M63,32h-7.14l3.69,6.34,3.45-6.34Z"/>
  <path class="cls-3" d="M70.13,38.82h-8.42l3.61-6.34,4.81,6.34Z"/>
  <path class="cls-1" d="M7.13,52c0-4.97,4.03-9,9-9h31c4.97,0,9,4.03,9,9v38H16.13c-4.97,0-9-4.03-9-9v-29Z"/>
  <path class="cls-2" d="M24.13,72.14c0-2.21,1.79-4,4-4h8c2.21,0,4,1.79,4,4v17.86H24.13v-17.86Z"/>
  <path class="cls-3" d="M14.01,41.99c.07,.6,.53,1.01,1.12,1.01s1.05-.41,1.12-1.05c.76-6.56,1.03-6.83,7.73-7.81,.72-.1,1.15-.5,1.15-1.13s-.43-1.03-1-1.13c-6.85-1.34-7.14-1.29-7.88-7.81-.07-.65-.53-1.08-1.12-1.08s-1.05,.43-1.12,1.05c-.81,6.71-1.05,6.92-7.88,7.83-.57,.07-1,.53-1,1.13s.41,1.01,.98,1.13l.12,.02c6.78,1.32,6.97,1.36,7.78,7.83Z"/>
  <path class="cls-3" d="M23.79,22.25c.05,.45,.39,.75,.84,.75s.79-.31,.84-.79c.57-4.92,.77-5.12,5.8-5.86,.54-.07,.86-.38,.86-.84s-.32-.77-.75-.84c-5.14-1.01-5.35-.97-5.91-5.86-.05-.49-.39-.81-.84-.81s-.79,.32-.84,.79c-.61,5.03-.79,5.19-5.91,5.87-.43,.05-.75,.4-.75,.84s.3,.75,.73,.84l.09,.02c5.09,.99,5.23,1.02,5.84,5.87Z"/>
  <path class="cls-3" d="M84.67,81.94c.05,.44,.39,.74,.83,.74s.77-.3,.83-.77c.56-4.82,.76-5.01,5.7-5.73,.53-.07,.84-.37,.84-.83s-.32-.76-.74-.83c-5.04-.98-5.26-.95-5.8-5.73-.05-.47-.39-.79-.83-.79s-.77,.32-.83,.77c-.6,4.92-.77,5.08-5.8,5.75-.42,.05-.74,.39-.74,.83s.3,.74,.72,.83l.09,.02c4.99,.97,5.14,1,5.73,5.75Z"/>
  <path class="cls-3" d="M76.02,62.45c.04,.33,.29,.55,.62,.55s.58-.22,.62-.58c.42-3.61,.56-3.75,4.25-4.29,.39-.05,.63-.28,.63-.62s-.24-.57-.55-.62c-3.77-.74-3.92-.71-4.33-4.29-.04-.36-.29-.59-.62-.59s-.58,.24-.62,.58c-.45,3.69-.58,3.81-4.33,4.31-.32,.04-.55,.29-.55,.62s.22,.55,.54,.62h.07c3.73,.74,3.84,.76,4.28,4.32Z"/>
</svg>