<svg width="20" height="20" viewBox="0 0 20 20" fill="none" xmlns="http://www.w3.org/2000/svg">
<path d="M10 10C10.5933 10 11.1734 9.82405 11.6667 9.49441C12.1601 9.16477 12.5446 8.69623 12.7716 8.14805C12.9987 7.59987 13.0581 6.99667 12.9424 6.41473C12.8266 5.83279 12.5409 5.29824 12.1213 4.87868C11.7018 4.45912 11.1672 4.1734 10.5853 4.05765C10.0033 3.94189 9.40013 4.0013 8.85195 4.22836C8.30377 4.45543 7.83524 4.83994 7.50559 5.33329C7.17595 5.82664 7 6.40666 7 7C7 7.79565 7.31607 8.55871 7.87868 9.12132C8.44129 9.68393 9.20435 10 10 10ZM10 11.5C8 11.5 4 12.505 4 14.5V16H16V14.5C16 12.505 12 11.5 10 11.5Z" fill="#C3C3C3"/>
</svg>
