<svg width="236" height="370" viewBox="0 0 236 370" fill="none" xmlns="http://www.w3.org/2000/svg">
<path d="M236 340H0V370H236V340Z" fill="#ECEFF1"/>
<path d="M3.5 347.5H233.5" stroke="#CFD8DC" stroke-linecap="round" stroke-dasharray="2 5"/>
<path d="M3.5 354.5H233.5" stroke="#CFD8DC" stroke-linecap="round" stroke-dasharray="2 5"/>
<path d="M3.5 361.5H233.5" stroke="#CFD8DC" stroke-linecap="round" stroke-dasharray="2 5"/>
<path d="M236 339H0V340H236V339Z" fill="#CFD8DC"/>
<path d="M236 67H0V257H236V67Z" fill="url(#paint0_radial_35_524)"/>
<path d="M214 189L221 235H207L214 189Z" fill="#0FA766"/>
<path d="M207 198L213 235H201L207 198Z" fill="#0FA766"/>
<path d="M190 213H225V236C225 238.917 223.841 241.715 221.778 243.778C219.715 245.841 216.917 247 214 247H201C198.083 247 195.285 245.841 193.222 243.778C191.159 241.715 190 238.917 190 236V213Z" fill="#FFD54F"/>
<path d="M195.5 220.5H224.5H195.5Z" stroke="white"/>
<path d="M27 247C36.3888 247 44 239.389 44 230C44 220.611 36.3888 213 27 213C17.6112 213 10 220.611 10 230C10 239.389 17.6112 247 27 247Z" fill="#FF8A65"/>
<path d="M192 135H46C43.2386 135 41 137.239 41 140V242C41 244.761 43.2386 247 46 247H192C194.761 247 197 244.761 197 242V140C197 137.239 194.761 135 192 135Z" fill="url(#paint1_linear_35_524)"/>
<path d="M192 135.5H46C43.5147 135.5 41.5 137.515 41.5 140V242C41.5 244.485 43.5147 246.5 46 246.5H192C194.485 246.5 196.5 244.485 196.5 242V140C196.5 137.515 194.485 135.5 192 135.5Z" stroke="#CFD8DC"/>
<path d="M32 240H205C205.53 240 206.039 240.211 206.414 240.586C206.789 240.961 207 241.47 207 242C207 242.657 206.871 243.307 206.619 243.913C206.368 244.52 206 245.071 205.536 245.536C204.598 246.473 203.326 247 202 247H35C33.6739 247 32.4021 246.473 31.4645 245.536C30.5268 244.598 30 243.326 30 242C30 241.47 30.2107 240.961 30.5858 240.586C30.9609 240.211 31.4696 240 32 240Z" fill="white"/>
<path d="M32 240.5H205C205.398 240.5 205.779 240.658 206.061 240.939C206.342 241.221 206.5 241.602 206.5 242C206.5 243.193 206.026 244.338 205.182 245.182C204.338 246.026 203.193 246.5 202 246.5H35C33.8065 246.5 32.6619 246.026 31.818 245.182C30.9741 244.338 30.5 243.193 30.5 242C30.5 241.602 30.658 241.221 30.9393 240.939C31.2206 240.658 31.6022 240.5 32 240.5Z" stroke="#CFD8DC"/>
<path d="M119.5 143C120.328 143 121 142.328 121 141.5C121 140.672 120.328 140 119.5 140C118.672 140 118 140.672 118 141.5C118 142.328 118.672 143 119.5 143Z" fill="white"/>
<path d="M119.5 142.5C120.052 142.5 120.5 142.052 120.5 141.5C120.5 140.948 120.052 140.5 119.5 140.5C118.948 140.5 118.5 140.948 118.5 141.5C118.5 142.052 118.948 142.5 119.5 142.5Z" stroke="#808E95"/>
<path d="M221 251H15V280H221V251Z" fill="#003F88"/>
<path d="M21 370L21 251H10L10 370H21Z" fill="#5796EC"/>
<path d="M226 370V251H215V370H226Z" fill="#5796EC"/>
<path d="M121 370L121 251H116V370H121Z" fill="#FE8A65"/>
<path d="M31 188H54C55.3261 188 56.5979 188.527 57.5355 189.464C58.4732 190.402 59 191.674 59 193V247H26V193C26 191.674 26.5268 190.402 27.4645 189.464C28.4021 188.527 29.6739 188 31 188Z" fill="white"/>
<path d="M31 188.5H54C55.1935 188.5 56.3381 188.974 57.182 189.818C58.0259 190.662 58.5 191.807 58.5 193V246.5H26.5V193C26.5 191.807 26.9741 190.662 27.818 189.818C28.6619 188.974 29.8065 188.5 31 188.5Z" stroke="#CFD8DC"/>
<path d="M48.5 195C49.3284 195 50 194.328 50 193.5C50 192.672 49.3284 192 48.5 192C47.6716 192 47 192.672 47 193.5C47 194.328 47.6716 195 48.5 195Z" fill="white"/>
<path d="M48.5 194.5C49.0523 194.5 49.5 194.052 49.5 193.5C49.5 192.948 49.0523 192.5 48.5 192.5C47.9477 192.5 47.5 192.948 47.5 193.5C47.5 194.052 47.9477 194.5 48.5 194.5Z" stroke="#808E95"/>
<path d="M39.5 193.5H45.5" stroke="#808E95"/>
<path d="M235 246H1C0.447715 246 0 246.448 0 247V256C0 256.552 0.447715 257 1 257H235C235.552 257 236 256.552 236 256V247C236 246.448 235.552 246 235 246Z" fill="#5796EC"/>
<path d="M75.087 225H160.913C163.311 224.989 165.616 225.93 167.32 227.618C169.024 229.306 169.988 231.602 170 234L159.9 302C159.888 304.399 158.924 306.694 157.22 308.382C155.516 310.07 153.211 311.012 150.813 311H85.184C82.7861 311.011 80.4821 310.069 78.7786 308.381C77.0751 306.693 76.1116 304.398 76.1 302L66 234C66.0116 231.602 66.9755 229.306 68.6797 227.618C70.3838 225.93 72.6885 224.989 75.087 225Z" fill="#FFD54F"/>
<path d="M54 238H31C30.4477 238 30 238.448 30 239V242C30 242.552 30.4477 243 31 243H54C54.5523 243 55 242.552 55 242V239C55 238.448 54.5523 238 54 238Z" fill="#0F1FEA"/>
<path d="M100 81.5H14C12.0701 81.5 10.5 79.9299 10.5 78V4C10.5 2.07009 12.0701 0.5 14 0.5H100C101.93 0.5 103.5 2.07009 103.5 4V78C103.5 79.9299 101.93 81.5 100 81.5Z" fill="white"/>
<path d="M14 1C12.3458 1 11 2.3458 11 4V78C11 79.6542 12.3458 81 14 81H100C101.654 81 103 79.6542 103 78V4C103 2.3458 101.654 1 100 1H14ZM14 0H100C102.209 0 104 1.79086 104 4V78C104 80.2091 102.209 82 100 82H14C11.7909 82 10 80.2091 10 78V4C10 1.79086 11.7909 0 14 0Z" fill="#CFD8DC"/>
<path d="M98 5H16C15.4477 5 15 5.44772 15 6V76C15 76.5523 15.4477 77 16 77H98C98.5523 77 99 76.5523 99 76V6C99 5.44772 98.5523 5 98 5Z" fill="#5796EC"/>
<path d="M39 58C45.0751 58 50 53.0751 50 47C50 40.9249 45.0751 36 39 36C32.9249 36 28 40.9249 28 47C28 53.0751 32.9249 58 39 58Z" fill="#FFD54F"/>
<path d="M16.834 77L38.954 46.879L61.074 77H16.834Z" fill="#003F88"/>
<path d="M39.1479 77L73 34L99 67.026V76C99 76.2652 98.8947 76.5196 98.7072 76.7071C98.5196 76.8946 98.2652 77 98 77H39.1479Z" fill="#0069B9"/>
<mask id="mask0_35_524" style="mask-type:luminance" maskUnits="userSpaceOnUse" x="89" y="341" width="56" height="29">
<path d="M145 341H89V370H145V341Z" fill="white"/>
</mask>
<g mask="url(#mask0_35_524)">
<path d="M118.5 385.5C126.232 385.5 132.5 379.232 132.5 371.5C132.5 363.768 126.232 357.5 118.5 357.5C110.768 357.5 104.5 363.768 104.5 371.5C104.5 379.232 110.768 385.5 118.5 385.5Z" stroke="#FE8A65" stroke-width="5"/>
</g>
<path d="M222 67H163C160.791 67 159 68.7909 159 71V120C159 122.209 160.791 124 163 124H222C224.209 124 226 122.209 226 120V71C226 68.7909 224.209 67 222 67Z" fill="white"/>
<path d="M222 67.5H163C161.067 67.5 159.5 69.067 159.5 71V120C159.5 121.933 161.067 123.5 163 123.5H222C223.933 123.5 225.5 121.933 225.5 120V71C225.5 69.067 223.933 67.5 222 67.5Z" stroke="#CFD8DC"/>
<path d="M161 67H224C224.53 67 225.039 67.2107 225.414 67.5858C225.789 67.9609 226 68.4696 226 69V76H159V69C159 68.4696 159.211 67.9609 159.586 67.5858C159.961 67.2107 160.47 67 161 67Z" fill="#CFD8DC"/>
<path d="M161 67.5H224C224.398 67.5 224.779 67.658 225.061 67.9393C225.342 68.2206 225.5 68.6022 225.5 69V75.5H159.5V69C159.5 68.6022 159.658 68.2206 159.939 67.9393C160.221 67.658 160.602 67.5 161 67.5Z" stroke="#CFD8DC"/>
<path d="M221 86H164V87H221V86Z" fill="white"/>
<path d="M164.5 86.5H220.5H164.5Z" stroke="#CFD8DC"/>
<path d="M221 94H164V95H221V94Z" fill="white"/>
<path d="M164.5 94.5H220.5H164.5Z" stroke="#CFD8DC"/>
<path d="M189 119V86H188V119H189Z" fill="white"/>
<path d="M188.5 86.5V118.5V86.5Z" stroke="#CFD8DC"/>
<path d="M221 102H164V103H221V102Z" fill="white"/>
<path d="M164.5 102.5H220.5H164.5Z" stroke="#CFD8DC"/>
<path d="M181 119V86H180V119H181Z" fill="white"/>
<path d="M180.5 86.5V118.5V86.5Z" stroke="#CFD8DC"/>
<path d="M213 119V86H212V119H213Z" fill="white"/>
<path d="M212.5 86.5V118.5V86.5Z" stroke="#CFD8DC"/>
<path d="M221 110H164V111H221V110Z" fill="white"/>
<path d="M164.5 110.5H220.5H164.5Z" stroke="#CFD8DC"/>
<path d="M173 119V86H172V119H173Z" fill="white"/>
<path d="M172.5 86.5V118.5V86.5Z" stroke="#CFD8DC"/>
<path d="M205 119V86H204V119H205Z" fill="white"/>
<path d="M204.5 86.5V118.5V86.5Z" stroke="#CFD8DC"/>
<path d="M221 119V86H220V119H221Z" fill="white"/>
<path d="M220.5 86.5V118.5V86.5Z" stroke="#CFD8DC"/>
<path d="M221 118H164V119H221V118Z" fill="white"/>
<path d="M164.5 118.5H220.5H164.5Z" stroke="#CFD8DC"/>
<path d="M165 119V86H164V119H165Z" fill="white"/>
<path d="M164.5 86.5V118.5V86.5Z" stroke="#CFD8DC"/>
<path d="M197 119V86H196V119H197Z" fill="white"/>
<path d="M196.5 86.5V118.5V86.5Z" stroke="#CFD8DC"/>
<path d="M179 98.5C179 97.1193 177.881 96 176.5 96C175.119 96 174 97.1193 174 98.5C174 99.8807 175.119 101 176.5 101C177.881 101 179 99.8807 179 98.5Z" fill="#FE8A65"/>
<mask id="mask1_35_524" style="mask-type:luminance" maskUnits="userSpaceOnUse" x="66" y="225" width="104" height="87">
<path d="M75.087 225H160.913C163.311 224.989 165.616 225.93 167.32 227.618C169.024 229.306 169.988 231.602 170 234L159.9 302C159.888 304.399 158.924 306.694 157.22 308.382C155.516 310.07 153.211 311.012 150.813 311H85.184C82.7861 311.011 80.4821 310.069 78.7786 308.381C77.0751 306.693 76.1116 304.398 76.1 302L66 234C66.0116 231.602 66.9755 229.306 68.6797 227.618C70.3838 225.93 72.6885 224.989 75.087 225Z" fill="white"/>
</mask>
<g mask="url(#mask1_35_524)">
<path d="M118 245.5C154.175 245.5 183.5 216.175 183.5 180C183.5 143.825 154.175 114.5 118 114.5C81.8253 114.5 52.5 143.825 52.5 180C52.5 216.175 81.8253 245.5 118 245.5Z" stroke="white" stroke-linecap="round" stroke-dasharray="1 4"/>
</g>
<path d="M137.202 188.443C138.418 188.443 139.403 187.449 139.403 186.222C139.403 184.995 138.418 184 137.202 184C135.986 184 135 184.995 135 186.222C135 187.449 135.986 188.443 137.202 188.443Z" fill="#FF6700"/>
<path d="M122.403 182L119.29 192.589L116.215 182H112.617L109.554 192.547L106.453 182H102L107.661 199.999H111.308L114.406 189.287L117.523 199.999H121.146L126.832 182H122.403Z" fill="#0F1FEA"/>
<path d="M133.648 193.945C133.623 194.188 133.569 194.421 133.485 194.649C133.348 195.036 133.127 195.388 132.822 195.694C132.041 196.478 130.931 196.72 129.943 196.419L132.4 193.945L136.099 190.223C135.859 189.836 135.573 189.475 135.245 189.138C134.911 188.8 134.552 188.514 134.169 188.27C133.831 188.051 133.472 187.868 133.103 187.724C130.844 186.817 128.161 187.284 126.328 189.132C125.218 190.252 124.604 191.689 124.501 193.157C124.462 193.648 124.482 194.149 124.56 194.64C124.693 195.478 124.992 196.3 125.46 197.039C125.706 197.426 125.99 197.787 126.319 198.124C126.653 198.457 127.012 198.748 127.39 198.992C129.827 200.564 133.104 200.281 135.236 198.135C136.209 197.153 136.798 195.929 137.004 194.655C137.044 194.417 137.063 194.183 137.073 193.946H133.649L133.648 193.945ZM127.93 193.162C128.023 192.577 128.293 192.016 128.74 191.565C129.517 190.782 130.631 190.539 131.614 190.841L128.013 194.465C127.89 194.043 127.861 193.592 127.93 193.161V193.162Z" fill="#0F1FEA"/>
<defs>
<radialGradient id="paint0_radial_35_524" cx="0" cy="0" r="1" gradientUnits="userSpaceOnUse" gradientTransform="translate(-104.43 185.146) rotate(90) scale(139.948 93.0654)">
<stop stop-color="#CFD8DC"/>
<stop offset="1" stop-color="white" stop-opacity="0"/>
</radialGradient>
<linearGradient id="paint1_linear_35_524" x1="58.94" y1="214.968" x2="46.4661" y2="241.03" gradientUnits="userSpaceOnUse">
<stop stop-color="white"/>
<stop offset="1" stop-color="#CFD8DC"/>
</linearGradient>
</defs>
</svg>
