<?xml version="1.0" encoding="UTF-8"?>
<svg id="Layer_1" data-name="Layer 1" xmlns="http://www.w3.org/2000/svg" xmlns:xlink="http://www.w3.org/1999/xlink" viewBox="0 0 98 98">
  <defs>
    <style>
      .cls-1 {
        fill: url(#linear-gradient);
      }

      .cls-2 {
        fill: #fff;
      }

      .cls-3 {
        fill: rgba(255, 255, 255, .7);
      }

      .cls-4 {
        fill: url(#radial-gradient);
      }
    </style>
    <radialGradient id="radial-gradient" cx="-602.85" cy="449.22" fx="-602.85" fy="449.22" r="1" gradientTransform="translate(-10263.98 68644.62) rotate(57.38) scale(86.67 -101.69)" gradientUnits="userSpaceOnUse">
      <stop offset="0" stop-color="#002fff"/>
      <stop offset="1" stop-color="#1734b6"/>
    </radialGradient>
    <linearGradient id="linear-gradient" x1="33.84" y1="85.99" x2="32.66" y2="18.15" gradientUnits="userSpaceOnUse">
      <stop offset="0" stop-color="#fff" stop-opacity=".5"/>
      <stop offset=".02" stop-color="#fcfcff" stop-opacity=".54"/>
      <stop offset=".07" stop-color="#f4f3ff" stop-opacity=".66"/>
      <stop offset=".14" stop-color="#edebff" stop-opacity=".77"/>
      <stop offset=".22" stop-color="#e7e5ff" stop-opacity=".85"/>
      <stop offset=".31" stop-color="#e3e0ff" stop-opacity=".92"/>
      <stop offset=".42" stop-color="#e0ddff" stop-opacity=".97"/>
      <stop offset=".57" stop-color="#dedbff" stop-opacity=".99"/>
      <stop offset="1" stop-color="#dedbff"/>
    </linearGradient>
  </defs>
  <path class="cls-4" d="M46.53,20.5c0-4.42,3.58-8,8-8h30.72c4.42,0,8,3.58,8,8v57c0,4.42-3.58,8-8,8h-30.72c-4.42,0-8-3.58-8-8V20.5Z"/>
  <path class="cls-1" d="M4.75,26.5c0-4.42,3.58-8,8-8H53.75c4.42,0,8,3.58,8,8v59H12.75c-4.42,0-8-3.58-8-8V26.5Z"/>
  <path class="cls-2" d="M21.22,71.98c0-2.21,1.79-4,4-4h17.31c2.21,0,4,1.79,4,4v13.52H21.22v-13.52Z"/>
  <rect class="cls-3" x="19.28" y="47.54" width="11.68" height="11.68" rx="3" ry="3"/>
  <rect class="cls-3" x="36.8" y="47.54" width="11.68" height="11.68" rx="3" ry="3"/>
  <rect class="cls-3" x="19.28" y="30.5" width="11.68" height="11.68" rx="3" ry="3"/>
  <rect class="cls-3" x="36.8" y="30.5" width="11.68" height="11.68" rx="3" ry="3"/>
</svg>