<svg width="18" height="18" viewBox="0 0 18 18" fill="none" xmlns="http://www.w3.org/2000/svg">
<path d="M9 1.5C7.51664 1.5 6.0666 1.93987 4.83323 2.76398C3.59986 3.58809 2.63856 4.75943 2.07091 6.12987C1.50325 7.50032 1.35472 9.00832 1.64411 10.4632C1.9335 11.918 2.64781 13.2544 3.6967 14.3033C4.7456 15.3522 6.08197 16.0665 7.53683 16.3559C8.99168 16.6453 10.4997 16.4968 11.8701 15.9291C13.2406 15.3614 14.4119 14.4001 15.236 13.1668C16.0601 11.9334 16.5 10.4834 16.5 9C16.5 7.01088 15.7098 5.10322 14.3033 3.6967C12.8968 2.29018 10.9891 1.5 9 1.5ZM14.595 6.84L12.51 7.7C12.3218 7.19578 12.0269 6.73817 11.6454 6.35847C11.264 5.97877 10.8051 5.68593 10.3 5.5L11.163 3.415C11.9427 3.71418 12.6511 4.17358 13.2422 4.76353C13.8334 5.35348 14.2942 6.06087 14.595 6.84ZM9 11.25C8.555 11.25 8.11998 11.118 7.74997 10.8708C7.37996 10.6236 7.09157 10.2722 6.92127 9.86104C6.75098 9.4499 6.70642 8.9975 6.79324 8.56105C6.88005 8.12459 7.09435 7.72368 7.40901 7.40901C7.72368 7.09434 8.12459 6.88005 8.56105 6.79323C8.99751 6.70642 9.44991 6.75097 9.86104 6.92127C10.2722 7.09157 10.6236 7.37996 10.8708 7.74997C11.118 8.11998 11.25 8.55499 11.25 9C11.2504 9.29559 11.1925 9.58834 11.0795 9.8615C10.9666 10.1347 10.8009 10.3829 10.5919 10.5919C10.3829 10.8009 10.1347 10.9666 9.86151 11.0795C9.58835 11.1925 9.29559 11.2504 9 11.25ZM6.847 3.4L7.725 5.49C7.21304 5.67654 6.74788 5.9724 6.36189 6.35701C5.97591 6.74161 5.67838 7.20571 5.49 7.717L3.4 6.847C3.70071 6.06284 4.163 5.35071 4.75686 4.75685C5.35071 4.163 6.06285 3.7007 6.847 3.4ZM3.4 11.153L5.49 10.29C5.67695 10.8 5.97315 11.263 6.35784 11.6464C6.74253 12.0299 7.20642 12.3247 7.717 12.51L6.84 14.6C6.05752 14.2978 5.34709 13.8349 4.75456 13.2412C4.16204 12.6475 3.70059 11.9361 3.4 11.153ZM11.155 14.595L10.3 12.51C10.8083 12.3216 11.2694 12.0248 11.6514 11.6402C12.0334 11.2556 12.327 10.7925 12.512 10.283L14.597 11.161C14.2949 11.9412 13.8331 12.6497 13.2412 13.2411C12.6494 13.8324 11.9405 14.2936 11.16 14.595H11.155Z" fill="#0F1FEA"/>
</svg>
