<svg width="24" height="24" viewBox="0 0 24 24" fill="none" xmlns="http://www.w3.org/2000/svg">
<path d="M12 22C6.51705 22 2 17.4851 2 11.9953C2 6.51491 6.50758 2 12 2C17.483 2 22 6.51491 22 11.9953C22 17.4851 17.4924 22 12 22ZM12 20.0691C13.3163 20.0691 14.5663 19.7473 15.6648 19.1794C15.4186 18.9049 15.1723 18.744 14.7841 18.7534C14.3864 18.7534 14.036 18.9711 13.4394 18.9711C12.767 18.9711 12.303 18.4695 12.0852 17.5135C11.8295 16.4155 12.0189 15.8855 12.7576 15.611L13.1364 15.469C13.7708 15.2229 13.9318 15.0999 14.0455 14.7307C14.4621 13.4908 15.0208 12.9796 15.9867 12.9796C16.5076 12.9796 16.8295 13.1311 17.2083 13.557C17.4545 13.841 17.5114 13.8599 17.8049 13.7653C18.0511 13.6801 18.3163 13.6422 18.5341 13.6422C19.0265 13.6422 19.4337 13.8978 19.7178 14.371C19.9545 13.6233 20.0777 12.8282 20.0777 11.9953C20.0777 9.01372 18.411 6.38239 15.9678 4.98154C15.7311 5.0762 15.6458 5.16138 15.6458 5.25603C15.6458 5.51159 16.8864 6.1363 16.8864 6.81779C16.8864 7.4425 16.1288 8.22811 14.9924 8.83389C14.4716 9.08945 14.3674 9.32608 14.3295 9.52485C14.2159 9.99811 13.7519 10.4619 12.7197 9.62896C12.5777 9.52485 12.4451 9.47752 12.3409 9.47752C12.161 9.47752 12.0095 9.5911 12.0095 9.77094C12.0095 10.1779 13.0417 10.7459 13.0417 11.3611C13.0417 12.2603 11.8295 13.3109 10.5795 13.3109C10.4186 13.3109 10.2955 13.3772 10.2955 13.5002C10.2955 13.7274 10.8352 14.1155 10.8352 14.3994C10.8352 15.0431 10.1629 15.8476 9.60417 15.8476C9.02652 15.8476 8.44886 15.2797 7.58712 14.1912C7.0947 13.5476 6.82008 13.3015 6.53598 13.3015C6.07197 13.3015 6.05303 14.8348 4.93561 15.876C6.31818 18.3654 8.97917 20.0691 12 20.0691ZM14.178 11.522C13.8939 11.522 13.6572 11.3895 13.6572 11.0677C13.6572 10.7743 13.7898 10.6323 14.178 10.5187C14.6705 10.3767 14.8693 10.2442 14.9924 9.97918C15.2102 9.51538 15.5511 9.23142 15.911 9.23142C16.2519 9.23142 16.4034 9.49645 16.4034 9.81827C16.4034 10.2063 16.1667 10.6607 15.7216 10.7932C15.0492 10.992 14.7746 11.522 14.178 11.522ZM11.4981 15.6867C11.2235 15.6867 11.053 15.5542 11.053 15.327C11.053 14.9673 11.3655 14.9579 11.3655 14.5887C11.3655 13.964 11.5928 13.5476 11.9432 13.5476C12.2557 13.5476 12.5398 13.8599 12.5398 14.5319C12.5398 15.0809 12.0284 15.6867 11.4981 15.6867ZM9.76515 17.4472C8.53409 17.4472 8.81818 16.6427 8.22159 16.6427C7.94697 16.6427 7.73864 16.4818 7.73864 16.2735C7.73864 16.018 7.94697 15.8381 8.25 15.8381C8.7803 15.8381 8.83712 16.4723 9.94508 16.4723C10.2292 16.4723 10.428 16.6427 10.428 16.8888C10.428 17.239 10.1629 17.4472 9.76515 17.4472Z" fill="#0F38EE"/>
</svg>
