<svg width="24" height="24" viewBox="0 0 24 24" fill="none" xmlns="http://www.w3.org/2000/svg">
<path d="M14.71 17.2901C14.8963 17.1027 15.0008 16.8493 15.0008 16.5851C15.0008 16.3209 14.8963 16.0675 14.71 15.8801L10.83 12.0001L14.71 8.12011C14.8147 8.03046 14.8997 7.92015 14.9598 7.79608C15.0198 7.67202 15.0535 7.53688 15.0588 7.39916C15.0641 7.26144 15.0409 7.12411 14.9907 6.99579C14.9404 6.86746 14.8641 6.75091 14.7667 6.65346C14.6692 6.556 14.5527 6.47975 14.4243 6.42947C14.296 6.3792 14.1587 6.35599 14.021 6.36131C13.8833 6.36663 13.7481 6.40036 13.6241 6.46038C13.5 6.52041 13.3897 6.60543 13.3 6.71011L8.71003 11.3001C8.52378 11.4875 8.41923 11.7409 8.41923 12.0051C8.41923 12.2693 8.52378 12.5227 8.71003 12.7101L13.3 17.3001C13.4887 17.485 13.7429 17.5878 14.0071 17.5859C14.2713 17.584 14.524 17.4777 14.71 17.2901Z" fill="#494949"/>
</svg>
