<svg width="28" height="16" viewBox="0 0 28 16" fill="none" xmlns="http://www.w3.org/2000/svg">
<g clip-path="url(#clip0_22_460)">
<path d="M1.25852 12.5V3.77273H3.10369V7.37358H6.84943V3.77273H8.69034V12.5H6.84943V8.89489H3.10369V12.5H1.25852ZM13.1605 12.6278C12.4872 12.6278 11.9077 12.4915 11.4219 12.2188C10.9389 11.9432 10.5668 11.554 10.3054 11.0511C10.044 10.5455 9.91335 9.94744 9.91335 9.2571C9.91335 8.58381 10.044 7.9929 10.3054 7.48438C10.5668 6.97585 10.9347 6.57955 11.4091 6.29545C11.8864 6.01136 12.446 5.86932 13.0881 5.86932C13.5199 5.86932 13.9219 5.93892 14.294 6.07812C14.669 6.21449 14.9957 6.42045 15.2741 6.69602C15.5554 6.97159 15.7741 7.31818 15.9304 7.7358C16.0866 8.15057 16.1648 8.63636 16.1648 9.19318V9.69176H10.6378V8.56676H14.456C14.456 8.3054 14.3991 8.07386 14.2855 7.87216C14.1719 7.67045 14.0142 7.51278 13.8125 7.39915C13.6136 7.28267 13.3821 7.22443 13.1179 7.22443C12.8423 7.22443 12.598 7.28835 12.3849 7.41619C12.1747 7.54119 12.0099 7.71023 11.8906 7.9233C11.7713 8.13352 11.7102 8.3679 11.7074 8.62642V9.69602C11.7074 10.0199 11.767 10.2997 11.8864 10.5355C12.0085 10.7713 12.1804 10.9531 12.402 11.081C12.6236 11.2088 12.8864 11.2727 13.1903 11.2727C13.392 11.2727 13.5767 11.2443 13.7443 11.1875C13.9119 11.1307 14.0554 11.0455 14.1747 10.9318C14.294 10.8182 14.3849 10.679 14.4474 10.5142L16.1264 10.625C16.0412 11.0284 15.8665 11.3807 15.6023 11.6818C15.3409 11.9801 15.0028 12.2131 14.5881 12.3807C14.1761 12.5455 13.7003 12.6278 13.1605 12.6278ZM19.1648 3.77273V12.5H17.3494V3.77273H19.1648ZM20.619 14.9545V5.95455H22.4087V7.05398H22.4897C22.5692 6.87784 22.6843 6.69886 22.8349 6.51705C22.9883 6.33239 23.1871 6.17898 23.4315 6.05682C23.6786 5.93182 23.9854 5.86932 24.3519 5.86932C24.8292 5.86932 25.2695 5.99432 25.6729 6.24432C26.0763 6.49148 26.3988 6.86506 26.6403 7.36506C26.8817 7.86222 27.0025 8.4858 27.0025 9.2358C27.0025 9.96591 26.8846 10.5824 26.6488 11.0852C26.4158 11.5852 26.0977 11.9645 25.6942 12.223C25.2937 12.4787 24.8448 12.6065 24.3477 12.6065C23.9954 12.6065 23.6957 12.5483 23.4485 12.4318C23.2042 12.3153 23.0039 12.169 22.8477 11.9929C22.6914 11.8139 22.5721 11.6335 22.4897 11.4517H22.4343V14.9545H20.619ZM22.396 9.22727C22.396 9.61648 22.4499 9.95597 22.5579 10.2457C22.6658 10.5355 22.8221 10.7614 23.0266 10.9233C23.2312 11.0824 23.4798 11.1619 23.7724 11.1619C24.0678 11.1619 24.3178 11.081 24.5224 10.919C24.7269 10.7543 24.8817 10.527 24.9869 10.2372C25.0948 9.9446 25.1488 9.60795 25.1488 9.22727C25.1488 8.84943 25.0962 8.51705 24.9911 8.23011C24.886 7.94318 24.7312 7.71875 24.5266 7.55682C24.3221 7.39489 24.0707 7.31392 23.7724 7.31392C23.4769 7.31392 23.2269 7.39205 23.0224 7.5483C22.8207 7.70455 22.6658 7.92614 22.5579 8.21307C22.4499 8.5 22.396 8.83807 22.396 9.22727Z" fill="#0F38EE"/>
</g>
<defs>
<clipPath id="clip0_22_460">
<rect width="27" height="15" fill="white" transform="translate(0.5 0.5)"/>
</clipPath>
</defs>
</svg>
