<svg width="19" height="18" viewBox="0 0 19 18" fill="none" xmlns="http://www.w3.org/2000/svg">
<g clip-path="url(#clip0_22_459)">
<path d="M9.5 1.5C8.01664 1.5 6.5666 1.93987 5.33323 2.76398C4.09986 3.58809 3.13856 4.75943 2.57091 6.12987C2.00325 7.50032 1.85472 9.00832 2.14411 10.4632C2.4335 11.918 3.14781 13.2544 4.1967 14.3033C5.2456 15.3522 6.58197 16.0665 8.03683 16.3559C9.49168 16.6453 10.9997 16.4968 12.3701 15.9291C13.7406 15.3614 14.9119 14.4001 15.736 13.1668C16.5601 11.9334 17 10.4834 17 9C17 7.01088 16.2098 5.10322 14.8033 3.6967C13.3968 2.29018 11.4891 1.5 9.5 1.5ZM15.095 6.84L13.01 7.7C12.8218 7.19578 12.5269 6.73817 12.1454 6.35847C11.764 5.97877 11.3051 5.68593 10.8 5.5L11.663 3.415C12.4427 3.71418 13.1511 4.17358 13.7422 4.76353C14.3334 5.35348 14.7942 6.06087 15.095 6.84ZM9.5 11.25C9.055 11.25 8.61998 11.118 8.24997 10.8708C7.87996 10.6236 7.59157 10.2722 7.42127 9.86104C7.25098 9.4499 7.20642 8.9975 7.29324 8.56105C7.38005 8.12459 7.59435 7.72368 7.90901 7.40901C8.22368 7.09434 8.62459 6.88005 9.06105 6.79323C9.49751 6.70642 9.94991 6.75097 10.361 6.92127C10.7722 7.09157 11.1236 7.37996 11.3708 7.74997C11.618 8.11998 11.75 8.55499 11.75 9C11.7504 9.29559 11.6925 9.58834 11.5795 9.8615C11.4666 10.1347 11.3009 10.3829 11.0919 10.5919C10.8829 10.8009 10.6347 10.9666 10.3615 11.0795C10.0883 11.1925 9.79559 11.2504 9.5 11.25ZM7.347 3.4L8.225 5.49C7.71304 5.67654 7.24788 5.9724 6.86189 6.35701C6.47591 6.74161 6.17838 7.20571 5.99 7.717L3.9 6.847C4.20071 6.06284 4.663 5.35071 5.25686 4.75685C5.85071 4.163 6.56285 3.7007 7.347 3.4ZM3.9 11.153L5.99 10.29C6.17695 10.8 6.47315 11.263 6.85784 11.6464C7.24253 12.0299 7.70642 12.3247 8.217 12.51L7.34 14.6C6.55752 14.2978 5.84709 13.8349 5.25456 13.2412C4.66204 12.6475 4.20059 11.9361 3.9 11.153ZM11.655 14.595L10.8 12.51C11.3083 12.3216 11.7694 12.0248 12.1514 11.6402C12.5334 11.2556 12.827 10.7925 13.012 10.283L15.097 11.161C14.7949 11.9412 14.3331 12.6497 13.7412 13.2411C13.1494 13.8324 12.4405 14.2936 11.66 14.595H11.655Z" fill="#0F38EE"/>
</g>
<defs>
<clipPath id="clip0_22_459">
<rect width="18" height="18" fill="white" transform="translate(0.5)"/>
</clipPath>
</defs>
</svg>
