<svg width="7" height="13" viewBox="0 0 7 13" fill="none" xmlns="http://www.w3.org/2000/svg">
<g clip-path="url(#clip0_210_36212)">
<path d="M7 6.49658C7 6.64697 6.97266 6.78597 6.91797 6.91357C6.86328 7.03662 6.77441 7.15739 6.65137 7.27588L1.72266 12.1021C1.54492 12.2843 1.32161 12.3755 1.05273 12.3755C0.875 12.3755 0.710938 12.3322 0.560547 12.2456C0.414714 12.159 0.296224 12.0428 0.205078 11.897C0.11849 11.7511 0.0751953 11.5894 0.0751953 11.4116C0.0751953 11.1427 0.180013 10.9058 0.389648 10.7007L4.7168 6.49658L0.389648 2.28564C0.180013 2.08512 0.0751953 1.8527 0.0751953 1.58838C0.0751953 1.40609 0.11849 1.24202 0.205078 1.09619C0.296224 0.950358 0.414714 0.836426 0.560547 0.754395C0.710938 0.667806 0.875 0.624512 1.05273 0.624512C1.32161 0.624512 1.54492 0.715658 1.72266 0.897949L6.65137 5.71729C6.77441 5.83577 6.86328 5.95882 6.91797 6.08643C6.97266 6.20947 7 6.34619 7 6.49658Z" fill="white"/>
</g>
<defs>
<clipPath id="clip0_210_36212">
<rect width="6.9248" height="11.751" fill="white" transform="translate(0.0751953 0.624512)"/>
</clipPath>
</defs>
</svg>
