<svg width="156" height="27" viewBox="0 0 156 27" fill="none" xmlns="http://www.w3.org/2000/svg">
<g clip-path="url(#clip0_26_585)">
<g clip-path="url(#clip1_26_585)">
<path d="M116.042 17.7848C116.042 19.6142 115.618 21.2198 114.757 22.6033C113.902 23.9869 112.681 25.0647 111.094 25.8385C109.513 26.6123 107.668 26.9983 105.562 26.9983C103.724 26.9983 102.028 26.6789 100.483 26.0315C98.9384 25.3773 97.6232 24.4635 96.5472 23.2661L98.9829 20.7893L100.742 19.0044C101.108 19.5544 101.633 20.0224 102.301 20.4016C102.43 20.4768 102.567 20.5502 102.711 20.6168C103.58 21.0404 104.493 21.2488 105.448 21.2488C106.26 21.2488 106.978 21.1002 107.603 20.8098C108.229 20.5195 108.717 20.0958 109.075 19.5527C109.427 19.0095 109.607 18.3553 109.607 17.5901C109.607 16.8248 109.42 16.1775 109.054 15.6274C108.688 15.0843 108.163 14.676 107.495 14.3925C106.82 14.1106 106.014 13.9757 105.08 13.9757C104.592 13.9757 104.082 14.0047 103.557 14.0645C103.032 14.1311 102.617 14.2285 102.3 14.3464C102.3 14.3464 102.295 14.3486 102.285 14.3532V10.621L102.3 10.6056L106.717 5.6692H102.3V0H115.495V3.69463L109.82 9.93946C110.839 10.0437 111.773 10.3477 112.622 10.8687C113.678 11.516 114.511 12.4299 115.122 13.6119C115.739 14.7939 116.041 16.1843 116.041 17.7831L116.042 17.7848Z" fill="#FF6700"/>
<path d="M134.605 12.9286C133.808 11.5707 132.741 10.4912 131.404 9.69178C130.067 8.89239 128.577 8.49269 126.934 8.49269C126.901 8.49269 126.873 8.49611 126.841 8.49611L133.077 0H125.719L118.25 10.8909C116.778 13.1251 116.042 15.3456 116.042 17.5542C116.042 19.3323 116.478 20.9379 117.349 22.371C118.219 23.8058 119.397 24.9349 120.881 25.7599C122.364 26.5849 124.038 26.9983 125.902 26.9983C127.767 26.9983 129.477 26.5798 130.96 25.7411C132.444 24.9042 133.62 23.7751 134.492 22.3523C135.361 20.9311 135.797 19.3187 135.797 17.5166C135.797 15.817 135.397 14.2866 134.602 12.9286H134.605ZM129.051 19.3648C128.744 19.9609 128.321 20.4255 127.782 20.7552C127.242 21.0848 126.617 21.2505 125.906 21.2505C125.194 21.2505 124.605 21.0848 124.066 20.7552C123.526 20.4255 123.104 19.9626 122.797 19.3648C122.49 18.7686 122.336 18.1025 122.336 17.3663C122.336 16.6301 122.49 15.9708 122.797 15.3866C123.104 14.8024 123.526 14.3395 124.066 13.9962C124.605 13.6529 125.217 13.4821 125.906 13.4821C126.594 13.4821 127.242 13.6478 127.782 13.9774C128.321 14.3071 128.744 14.7717 129.051 15.3678C129.358 15.9656 129.511 16.6318 129.511 17.368C129.511 18.1042 129.358 18.7704 129.051 19.3665V19.3648Z" fill="#FF6700"/>
<path d="M152.449 13.1951C151.762 11.8372 150.751 10.7457 149.414 9.92067C148.077 9.09565 146.416 8.684 144.429 8.684C143.643 8.684 142.964 8.7472 142.388 8.8736C142.231 8.90776 142.077 8.94876 141.926 8.99488L142.335 5.67432H152.044V0H137.071L135.784 12.4145L138.36 14.852C138.924 14.4198 139.554 14.0833 140.254 13.8425C140.954 13.6016 141.719 13.4804 142.553 13.4804C143.483 13.4804 144.282 13.646 144.944 13.9757C145.605 14.3054 146.115 14.7631 146.47 15.3473C146.825 15.9315 147.003 16.6164 147.003 17.4039C147.003 18.1913 146.825 18.8711 146.47 19.4416C146.114 20.0121 145.624 20.4563 144.998 20.774C144.373 21.0917 143.63 21.2505 142.772 21.2505C141.815 21.2505 140.901 21.0404 140.031 20.6219C139.16 20.2035 138.505 19.6637 138.062 19.0027L133.868 23.2678C134.922 24.4618 136.264 25.3807 137.896 26.0281C139.526 26.6755 141.237 26.9983 143.028 26.9983C145.162 26.9983 147.006 26.6037 148.564 25.818C150.122 25.0306 151.33 23.9322 152.188 22.5231C153.046 21.1139 153.475 19.4963 153.475 17.6669C153.475 16.0425 153.132 14.5513 152.445 13.1934L152.449 13.1951Z" fill="#FF6700"/>
<path d="M70.2417 13.9945C69.7021 13.4394 69.0618 12.9799 68.3275 12.6041C68.8308 12.312 69.2846 11.9789 69.6707 11.5946C70.8589 10.416 71.4579 8.92143 71.4579 7.11938C71.4579 5.77681 71.1361 4.56918 70.5008 3.50332C69.8605 2.43746 68.9496 1.58683 67.7598 0.953122C66.5717 0.317707 65.1641 0 63.5453 0H51.7019V27.0017H63.2911C65.1063 27.0017 66.6806 26.6584 68.0189 25.9734C69.3523 25.2885 70.3869 24.3524 71.1279 23.1738C71.8622 21.9901 72.2302 20.6424 72.2302 19.1154C72.2302 17.0623 71.5685 15.3541 70.2434 13.9962L70.2417 13.9945ZM58.1772 5.06624H61.966C62.8241 5.06624 63.5271 5.28658 64.0799 5.72898C64.6327 6.1748 64.905 6.86487 64.905 7.80433C64.905 8.74378 64.6327 9.43898 64.0799 9.87967C63.5271 10.3255 62.8225 10.5458 61.966 10.5458H58.1772V5.06624ZM64.8159 21.0404C64.2169 21.6366 63.4 21.9321 62.3703 21.9321H58.1772V15.46H62.3703C63.0552 15.46 63.6492 15.5916 64.1542 15.8597C64.6575 16.1279 65.0436 16.5071 65.3159 17.0008C65.5832 17.4978 65.7202 18.0615 65.7202 18.6969C65.7202 19.6637 65.4215 20.4443 64.8176 21.0404H64.8159Z" fill="#0F1FEA"/>
<path d="M73.3688 26.9983V7.92053H79.8078V26.9983H73.3688Z" fill="#0F1FEA"/>
<path d="M81.7566 26.9983V0H88.1577V26.9983H81.7566Z" fill="#0F1FEA"/>
<path d="M90.1445 26.9983V0H96.5456V26.9983H90.1445Z" fill="#0F1FEA"/>
<path d="M76.5883 6.66502C78.3664 6.66502 79.8078 5.17301 79.8078 3.33251C79.8078 1.49202 78.3664 0 76.5883 0C74.8102 0 73.3688 1.49202 73.3688 3.33251C73.3688 5.17301 74.8102 6.66502 76.5883 6.66502Z" fill="#FF6700"/>
<path d="M30.2528 0L25.6999 15.8837L21.2032 0H15.9424L11.4638 15.8205L6.9291 0H0.41748L8.6948 26.9983H14.0282L18.5579 10.9302L23.1157 26.9983H28.4145L36.7281 0H30.2528Z" fill="#0F1FEA"/>
<path d="M46.6952 17.918C46.6589 18.2819 46.5797 18.632 46.4576 18.9736C46.2563 19.5544 45.9328 20.0822 45.4873 20.5417C44.3453 21.7169 42.7216 22.0807 41.2777 21.628L44.8701 17.918L50.2794 12.3342C49.9279 11.7535 49.5104 11.212 49.0302 10.7064C48.5418 10.2008 48.017 9.77038 47.4576 9.40485C46.9625 9.07689 46.4378 8.80189 45.8982 8.58667C42.5945 7.22531 38.672 7.92563 35.9921 10.6979C34.3683 12.3787 33.4706 14.5343 33.3205 16.736C33.2627 17.4722 33.2924 18.2238 33.4063 18.96C33.601 20.2171 34.0383 21.4504 34.7215 22.559C35.0812 23.1397 35.4971 23.6812 35.9789 24.1868C36.4674 24.6855 36.9921 25.1228 37.5449 25.4884C41.1077 27.8455 45.8998 27.4219 49.017 24.2022C50.4395 22.7298 51.3009 20.8936 51.6028 18.9822C51.6606 18.6252 51.6887 18.275 51.7035 17.9197H46.6969L46.6952 17.918ZM38.3337 16.7429C38.4707 15.8649 38.8651 15.0245 39.5186 14.3481C40.6539 13.1729 42.2843 12.8091 43.7216 13.2617L38.4558 18.6969C38.276 18.0649 38.2331 17.3885 38.3337 16.7412V16.7429Z" fill="#0F1FEA"/>
</g>
</g>
<defs>
<clipPath id="clip0_26_585">
<rect width="155" height="27" fill="white" transform="translate(0.41748)"/>
</clipPath>
<clipPath id="clip1_26_585">
<rect width="155" height="27" fill="white" transform="translate(0.41748)"/>
</clipPath>
</defs>
</svg>
