<svg width="19" height="18" viewBox="0 0 19 18" fill="none" xmlns="http://www.w3.org/2000/svg">
<g clip-path="url(#clip0_22_462)">
<path d="M6.75803 8.72798L8.91603 10.886C8.99312 10.9632 9.0847 11.0245 9.18551 11.0663C9.28632 11.1082 9.39439 11.1297 9.50353 11.1297C9.61267 11.1297 9.72074 11.1082 9.82155 11.0663C9.92236 11.0245 10.0139 10.9632 10.091 10.886L12.249 8.72798C12.3652 8.61096 12.4442 8.4622 12.476 8.30041C12.5079 8.13862 12.4911 7.97102 12.428 7.81871C12.3648 7.66639 12.258 7.53616 12.121 7.4444C11.984 7.35263 11.8229 7.30343 11.658 7.30298H7.34103C7.17617 7.30358 7.0152 7.35308 6.8785 7.44521C6.74179 7.53735 6.6355 7.66797 6.57308 7.82055C6.51065 7.97313 6.49491 8.1408 6.52783 8.30234C6.56075 8.46387 6.64087 8.612 6.75803 8.72798Z" fill="black"/>
</g>
<defs>
<clipPath id="clip0_22_462">
<rect width="18" height="18" fill="white" transform="translate(0.5)"/>
</clipPath>
</defs>
</svg>
