<svg width="7" height="12" viewBox="0 0 7 12" fill="none" xmlns="http://www.w3.org/2000/svg">
<g clip-path="url(#clip0_209_34504)">
<path d="M6.9248 5.99658C6.9248 6.14697 6.89746 6.28597 6.84277 6.41357C6.78809 6.53662 6.69922 6.65739 6.57617 6.77588L1.64746 11.6021C1.46973 11.7843 1.24642 11.8755 0.977539 11.8755C0.799805 11.8755 0.635742 11.8322 0.485352 11.7456C0.339518 11.659 0.221029 11.5428 0.129883 11.397C0.0432943 11.2511 0 11.0894 0 10.9116C0 10.6427 0.104818 10.4058 0.314453 10.2007L4.6416 5.99658L0.314453 1.78564C0.104818 1.58512 0 1.3527 0 1.08838C0 0.906087 0.0432943 0.742025 0.129883 0.596191C0.221029 0.450358 0.339518 0.336426 0.485352 0.254395C0.635742 0.167806 0.799805 0.124512 0.977539 0.124512C1.24642 0.124512 1.46973 0.215658 1.64746 0.397949L6.57617 5.21729C6.69922 5.33577 6.78809 5.45882 6.84277 5.58643C6.89746 5.70947 6.9248 5.84619 6.9248 5.99658Z" fill="white"/>
</g>
<defs>
<clipPath id="clip0_209_34504">
<rect width="6.9248" height="11.751" fill="white" transform="translate(0 0.124512)"/>
</clipPath>
</defs>
</svg>
