<svg width="13" height="21" viewBox="0 0 13 21" fill="none" xmlns="http://www.w3.org/2000/svg">
<g clip-path="url(#clip0_210_36233)">
<path d="M12.2305 10.4941C12.2305 10.7051 12.1914 10.9004 12.1133 11.0801C12.043 11.2598 11.918 11.4316 11.7383 11.5957L3.16016 19.998C2.89453 20.2637 2.57031 20.3965 2.1875 20.3965C1.92188 20.3965 1.67969 20.334 1.46094 20.209C1.25 20.084 1.08203 19.9121 0.957031 19.6934C0.832031 19.4824 0.769531 19.248 0.769531 18.9902C0.769531 18.6074 0.914062 18.2676 1.20312 17.9707L8.87891 10.4941L1.20312 3.01758C0.914062 2.7207 0.769531 2.38086 0.769531 1.99805C0.769531 1.73242 0.832031 1.49414 0.957031 1.2832C1.08203 1.07227 1.25 0.908203 1.46094 0.791016C1.67969 0.666016 1.92188 0.603516 2.1875 0.603516C2.57031 0.603516 2.89453 0.736328 3.16016 1.00195L11.7383 9.39258C11.9102 9.55664 12.0352 9.72852 12.1133 9.9082C12.1914 10.0879 12.2305 10.2832 12.2305 10.4941Z" fill="white"/>
</g>
<defs>
<clipPath id="clip0_210_36233">
<rect width="11.4609" height="19.793" fill="white" transform="translate(0.769531 0.603516)"/>
</clipPath>
</defs>
</svg>
