<svg width="45" height="16" viewBox="0 0 45 16" fill="none" xmlns="http://www.w3.org/2000/svg">
<g clip-path="url(#clip0_22_461)">
<path d="M1.25852 12.5V3.77273H7.1392V5.29403H3.10369V7.37358H6.83665V8.89489H3.10369V10.9787H7.15625V12.5H1.25852ZM10.3874 8.71591V12.5H8.57209V5.95455H10.3022V7.10938H10.3789C10.5238 6.72869 10.7667 6.42756 11.1076 6.20597C11.4485 5.98153 11.8619 5.86932 12.3477 5.86932C12.8022 5.86932 13.1985 5.96875 13.5366 6.16761C13.8746 6.36648 14.1374 6.65057 14.3249 7.01989C14.5124 7.38636 14.6062 7.82386 14.6062 8.33239V12.5H12.7908V8.65625C12.7937 8.25568 12.6914 7.94318 12.484 7.71875C12.2766 7.49148 11.9911 7.37784 11.6275 7.37784C11.3832 7.37784 11.1673 7.4304 10.9798 7.53551C10.7951 7.64062 10.6502 7.79403 10.5451 7.99574C10.4428 8.1946 10.3903 8.43466 10.3874 8.71591ZM18.9858 15.0909C18.3977 15.0909 17.8935 15.0099 17.473 14.848C17.0554 14.6889 16.723 14.4716 16.4759 14.196C16.2287 13.9205 16.0682 13.6108 15.9943 13.267L17.6733 13.0412C17.7244 13.1719 17.8054 13.294 17.9162 13.4077C18.027 13.5213 18.1733 13.6122 18.3551 13.6804C18.5398 13.7514 18.7642 13.7869 19.0284 13.7869C19.4233 13.7869 19.7486 13.6903 20.0043 13.4972C20.2628 13.3068 20.392 12.9872 20.392 12.5384V11.3409H20.3153C20.2358 11.5227 20.1165 11.6946 19.9574 11.8565C19.7983 12.0185 19.5938 12.1506 19.3438 12.2528C19.0938 12.3551 18.7955 12.4062 18.4489 12.4062C17.9574 12.4062 17.5099 12.2926 17.1065 12.0653C16.706 11.8352 16.3864 11.4844 16.1477 11.0128C15.9119 10.5384 15.794 9.93892 15.794 9.21449C15.794 8.47301 15.9148 7.85369 16.1562 7.35653C16.3977 6.85937 16.7188 6.48722 17.1193 6.24006C17.5227 5.9929 17.9645 5.86932 18.4446 5.86932C18.8111 5.86932 19.1179 5.93182 19.3651 6.05682C19.6122 6.17898 19.8111 6.33239 19.9616 6.51705C20.1151 6.69886 20.233 6.87784 20.3153 7.05398H20.3835V5.95455H22.1861V12.5639C22.1861 13.1207 22.0497 13.5866 21.777 13.9616C21.5043 14.3366 21.1264 14.6179 20.6435 14.8054C20.1634 14.9957 19.6108 15.0909 18.9858 15.0909ZM19.0241 11.0426C19.3168 11.0426 19.5639 10.9702 19.7656 10.8253C19.9702 10.6776 20.1264 10.4673 20.2344 10.1946C20.3452 9.91903 20.4006 9.58949 20.4006 9.20597C20.4006 8.82244 20.3466 8.49006 20.2386 8.20881C20.1307 7.92472 19.9744 7.70455 19.7699 7.5483C19.5653 7.39205 19.3168 7.31392 19.0241 7.31392C18.7259 7.31392 18.4744 7.39489 18.2699 7.55682C18.0653 7.71591 17.9105 7.9375 17.8054 8.22159C17.7003 8.50568 17.6477 8.83381 17.6477 9.20597C17.6477 9.58381 17.7003 9.91051 17.8054 10.1861C17.9134 10.4588 18.0682 10.6705 18.2699 10.821C18.4744 10.9687 18.7259 11.0426 19.0241 11.0426ZM25.446 3.77273V12.5H23.6307V3.77273H25.446ZM26.9002 12.5V5.95455H28.7156V12.5H26.9002ZM27.8121 5.1108C27.5423 5.1108 27.3107 5.02131 27.1175 4.84233C26.9272 4.66051 26.832 4.44318 26.832 4.19034C26.832 3.94034 26.9272 3.72585 27.1175 3.54688C27.3107 3.36506 27.5423 3.27415 27.8121 3.27415C28.082 3.27415 28.3121 3.36506 28.5025 3.54688C28.6957 3.72585 28.7923 3.94034 28.7923 4.19034C28.7923 4.44318 28.6957 4.66051 28.5025 4.84233C28.3121 5.02131 28.082 5.1108 27.8121 5.1108ZM35.6158 7.82102L33.9538 7.9233C33.9254 7.78125 33.8643 7.65341 33.7706 7.53977C33.6768 7.4233 33.5533 7.33097 33.3999 7.26278C33.2493 7.19176 33.0689 7.15625 32.8587 7.15625C32.5774 7.15625 32.3402 7.21591 32.147 7.33523C31.9538 7.4517 31.8572 7.60795 31.8572 7.80398C31.8572 7.96023 31.9197 8.09233 32.0447 8.20028C32.1697 8.30824 32.3842 8.39489 32.6882 8.46023L33.8729 8.69886C34.5092 8.82955 34.9837 9.03977 35.2962 9.32955C35.6087 9.61932 35.7649 10 35.7649 10.4716C35.7649 10.9006 35.6385 11.277 35.3857 11.6009C35.1357 11.9247 34.7919 12.1776 34.3544 12.3594C33.9197 12.5384 33.4183 12.6278 32.8501 12.6278C31.9837 12.6278 31.2933 12.4474 30.7791 12.0866C30.2678 11.723 29.968 11.2287 29.88 10.6037L31.6655 10.5099C31.7195 10.7741 31.8501 10.9759 32.0575 11.1151C32.2649 11.2514 32.5305 11.3196 32.8544 11.3196C33.1726 11.3196 33.4283 11.2585 33.6214 11.1364C33.8175 11.0114 33.9169 10.8509 33.9197 10.6548C33.9169 10.4901 33.8473 10.3551 33.7109 10.25C33.5746 10.142 33.3643 10.0597 33.0803 10.0028L31.9467 9.77699C31.3075 9.64915 30.8317 9.42756 30.5192 9.11222C30.2095 8.79687 30.0547 8.39489 30.0547 7.90625C30.0547 7.4858 30.1683 7.12358 30.3956 6.8196C30.6257 6.51562 30.9482 6.28125 31.3629 6.11648C31.7805 5.9517 32.2692 5.86932 32.8288 5.86932C33.6555 5.86932 34.3061 6.04403 34.7805 6.39347C35.2578 6.7429 35.5362 7.21875 35.6158 7.82102ZM38.7234 8.71591V12.5H36.908V3.77273H38.6722V7.10938H38.7489C38.8967 6.72301 39.1353 6.42045 39.4648 6.2017C39.7944 5.98011 40.2077 5.86932 40.7049 5.86932C41.1594 5.86932 41.5558 5.96875 41.8938 6.16761C42.2347 6.36364 42.4989 6.64631 42.6864 7.01562C42.8768 7.3821 42.9705 7.82102 42.9677 8.33239V12.5H41.1523V8.65625C41.1552 8.25284 41.0529 7.93892 40.8455 7.71449C40.641 7.49006 40.354 7.37784 39.9847 7.37784C39.7376 7.37784 39.5188 7.4304 39.3285 7.53551C39.141 7.64062 38.9933 7.79403 38.8853 7.99574C38.7802 8.1946 38.7262 8.43466 38.7234 8.71591Z" fill="black"/>
</g>
<defs>
<clipPath id="clip0_22_461">
<rect width="44" height="15" fill="white" transform="translate(0.5 0.5)"/>
</clipPath>
</defs>
</svg>
