<?xml version="1.0" encoding="UTF-8"?>
<svg id="Layer_1" data-name="Layer 1" xmlns="http://www.w3.org/2000/svg" viewBox="0 0 213.08 36.31">
  <defs>
    <style>
      .cls-1 {
        fill: #ff6700;
      }

      .cls-2 {
        fill: #0f1fea;
      }
    </style>
  </defs>
  <path class="cls-1" d="m160.96,23.92c0,2.46-.59,4.62-1.79,6.48-1.19,1.86-2.89,3.31-5.1,4.35-2.2,1.04-4.77,1.56-7.7,1.56-2.56,0-4.92-.43-7.07-1.3-2.15-.88-3.98-2.11-5.48-3.72l3.39-3.33,2.45-2.4c.51.74,1.24,1.37,2.17,1.88.18.1.37.2.57.29,1.21.57,2.48.85,3.81.85,1.13,0,2.13-.2,3-.59.87-.39,1.55-.96,2.05-1.69.49-.73.74-1.61.74-2.64s-.26-1.9-.77-2.64c-.51-.73-1.24-1.28-2.17-1.66-.94-.38-2.06-.56-3.36-.56-.68,0-1.39.04-2.12.12-.73.09-1.31.22-1.75.38t-.02,0v-5.02l.02-.02,6.15-6.64h-6.15V0h18.37v4.97l-7.9,8.4c1.42.14,2.72.55,3.9,1.25,1.47.87,2.63,2.1,3.48,3.69.86,1.59,1.28,3.46,1.28,5.61Z"/>
  <path class="cls-1" d="m186.8,17.39c-1.11-1.83-2.6-3.28-4.46-4.35-1.86-1.08-3.94-1.61-6.22-1.61-.05,0-.08,0-.13,0L184.68,0h-10.24l-10.4,14.65c-2.05,3-3.07,5.99-3.07,8.96,0,2.39.61,4.55,1.82,6.48,1.21,1.93,2.85,3.45,4.92,4.56,2.07,1.11,4.4,1.66,6.99,1.66s4.98-.56,7.04-1.69c2.07-1.13,3.7-2.65,4.92-4.56,1.21-1.91,1.82-4.08,1.82-6.5,0-2.29-.56-4.34-1.66-6.17Zm-7.73,8.66c-.43.8-1.02,1.43-1.77,1.87-.75.44-1.62.67-2.61.67s-1.81-.22-2.56-.67c-.75-.44-1.34-1.07-1.77-1.87-.43-.8-.64-1.7-.64-2.69s.21-1.88.64-2.66c.43-.79,1.02-1.41,1.77-1.87.75-.46,1.6-.69,2.56-.69s1.86.22,2.61.67c.75.44,1.34,1.07,1.77,1.87.43.8.64,1.7.64,2.69s-.21,1.89-.64,2.69Z"/>
  <path class="cls-1" d="m211.65,17.75c-.96-1.83-2.36-3.29-4.22-4.4-1.86-1.11-4.17-1.66-6.94-1.66-1.09,0-2.04.09-2.84.26-.22.05-.43.1-.64.16l.57-4.47h13.52V0h-20.84l-1.79,16.7,3.59,3.28c.78-.58,1.66-1.03,2.64-1.36.97-.32,2.04-.49,3.2-.49,1.3,0,2.41.22,3.33.67.92.44,1.63,1.06,2.13,1.84.49.79.74,1.71.74,2.77s-.25,1.97-.74,2.74c-.5.77-1.18,1.37-2.05,1.79-.87.43-1.9.64-3.1.64-1.33,0-2.6-.28-3.82-.85-1.21-.56-2.12-1.29-2.74-2.18l-5.84,5.74c1.47,1.6,3.34,2.84,5.61,3.71,2.27.87,4.65,1.31,7.14,1.31,2.97,0,5.54-.53,7.71-1.59,2.17-1.06,3.85-2.54,5.04-4.43,1.19-1.9,1.79-4.07,1.79-6.53,0-2.18-.48-4.19-1.43-6.02Z"/>
  <path class="cls-2" d="m97.2,18.82c-.75-.75-1.64-1.36-2.67-1.87.7-.39,1.33-.84,1.87-1.36,1.65-1.59,2.49-3.59,2.49-6.02,0-1.81-.45-3.43-1.33-4.86-.89-1.43-2.16-2.58-3.82-3.43C92.09.43,90.14,0,87.88,0h-16.49v36.31h16.13c2.53,0,4.72-.46,6.58-1.38,1.86-.92,3.3-2.18,4.33-3.76,1.02-1.59,1.53-3.4,1.53-5.46,0-2.76-.92-5.06-2.77-6.89Zm-16.8-12.01h5.27c1.19,0,2.17.3,2.94.89.77.6,1.15,1.53,1.15,2.79s-.38,2.2-1.15,2.79c-.77.6-1.75.9-2.94.9h-5.27v-7.37Zm9.24,21.48c-.83.8-1.97,1.2-3.4,1.2h-5.84v-8.7h5.84c.95,0,1.78.18,2.48.54.7.36,1.24.87,1.62,1.53.37.67.56,1.43.56,2.28,0,1.3-.42,2.35-1.26,3.15Z"/>
  <path class="cls-2" d="m101.56,36.31V10.65h8.96v25.66h-8.96Z"/>
  <path class="cls-2" d="m113.24,36.31V0h8.91v36.31h-8.91Z"/>
  <path class="cls-2" d="m124.91,36.31V0h8.91v36.31h-8.91Z"/>
  <circle class="cls-1" cx="106.04" cy="4.48" r="4.48"/>
  <g>
    <polygon class="cls-2" points="41.53 0 35.2 21.36 28.94 0 21.61 0 15.38 21.28 9.06 0 0 0 11.52 36.31 18.95 36.31 25.25 14.7 31.6 36.31 38.97 36.31 50.55 0 41.53 0"/>
    <path class="cls-2" d="m64.42,24.1c-.05.49-.16.96-.33,1.42-.28.78-.73,1.49-1.35,2.11-1.59,1.58-3.85,2.07-5.86,1.46l5-4.99,7.53-7.51c-.49-.78-1.07-1.51-1.74-2.19-.68-.68-1.41-1.26-2.19-1.75-.69-.44-1.42-.81-2.17-1.1-4.6-1.83-10.06-.89-13.79,2.84-2.26,2.26-3.51,5.16-3.72,8.12-.08.99-.04,2,.12,2.99.27,1.69.88,3.35,1.83,4.84.5.78,1.08,1.51,1.75,2.19.68.67,1.41,1.26,2.18,1.75,4.96,3.17,11.63,2.6,15.97-1.73,1.98-1.98,3.18-4.45,3.6-7.02.08-.48.12-.95.14-1.43h-6.97Zm-11.64-1.58c.19-1.18.74-2.31,1.65-3.22,1.58-1.58,3.85-2.07,5.85-1.46l-7.33,7.31c-.25-.85-.31-1.76-.17-2.63Z"/>
  </g>
</svg>