<svg width="125" height="30" viewBox="0 0 125 30" fill="none" xmlns="http://www.w3.org/2000/svg">
<g clip-path="url(#clip0_320_73)">
<path d="M8.53331 29.5588L0 0H6.88658L11.8239 20.5383H12.0712L17.5176 0H23.415L28.8468 20.5816H29.1087L34.0459 0H40.9325L32.3992 29.5588H26.2545L20.5754 10.2317H20.3426L14.678 29.5588H8.53331Z" fill="#00000C"/>
<path d="M58.1416 5.15332V0H82.633V5.15332H73.5033V29.5588H67.2713V5.15332H58.1416Z" fill="#00000C"/>
<path d="M56.2099 19.1916C56.2303 19.8433 56.0994 20.5239 55.8084 21.216C55.4797 22.0033 54.7959 22.7588 53.7835 23.4654C52.611 24.2786 51.3919 24.6592 50.1554 24.5929C49.0993 24.541 48.1247 24.1575 47.2402 23.5028C47.5544 23.2837 61.0221 13.9806 61.0221 13.9806L60.5362 13.2885C59.6197 11.7082 58.5694 10.4537 57.426 9.57128C56.1692 8.6081 54.8454 7.92176 53.4896 7.52956C51.6916 7.0249 49.8936 6.94992 48.145 7.3104C46.4139 7.6651 44.9039 8.27935 43.6674 9.13871C41.0868 10.9353 39.4953 13.4298 38.9425 16.55C38.3839 19.6732 39.0182 22.5512 40.8249 25.1091C42.6404 27.6843 45.16 29.2646 48.3109 29.8126C51.4618 30.3518 54.3653 29.7174 56.9431 27.9237C59.096 26.4299 60.5478 24.5612 61.2577 22.3695C61.5865 21.3371 61.7727 20.2644 61.8134 19.18L61.8193 19.0503L56.2099 19.0618L56.2157 19.1916H56.2099ZM44.2435 18.3005C44.2435 17.6488 44.3482 17.0057 44.5577 16.3885C44.9068 15.3273 45.608 14.4449 46.699 13.6836C47.601 13.0607 48.6251 12.6973 49.7539 12.6079C50.6995 12.53 51.6334 12.7809 52.5441 13.3087C52.2095 13.5394 44.6392 18.7677 44.2959 19.0041C44.2668 18.7706 44.2435 18.5341 44.2435 18.3005Z" fill="#00000C"/>
<path d="M96.3074 8.77541C94.5704 7.73148 92.5339 7.12012 90.3547 7.12012C83.986 7.12012 78.8247 12.2359 78.8247 18.5457C78.8247 24.8554 83.9831 29.9683 90.3547 29.9683C92.5339 29.9683 94.5704 29.3541 96.3074 28.313V29.3426H102.109V7.123H96.3074V8.77253V8.77541ZM90.3314 24.7429C86.8867 24.7429 84.0966 21.9803 84.0966 18.5659C84.0966 15.1515 86.8867 12.3917 90.3314 12.3917C93.7762 12.3917 96.5576 15.1572 96.5576 18.5659C96.5576 21.9745 93.7704 24.7429 90.3314 24.7429Z" fill="#00000C"/>
<path d="M110.147 7.17188L114.255 14.9235L118.462 7.17188H124.825L118.346 18.2571L125 29.3424H118.666L114.255 21.6773L109.915 29.3424H103.508L110.147 18.2571L103.741 7.17188H110.147Z" fill="#00000C"/>
</g>
<defs>
<clipPath id="clip0_320_73">
<rect width="125" height="30" fill="white"/>
</clipPath>
</defs>
</svg>
