<svg width="8" height="8" viewBox="0 0 38 36" fill="none" xmlns="http://www.w3.org/2000/svg">
<path d="M14.9354 36C16.4859 36 17.6594 35.4155 18.4559 34.2465L37.1679 6.12676C37.4666 5.69014 37.68 5.26761 37.808 4.85915C37.936 4.43662 38 4.03521 38 3.65493C38 2.61268 37.6373 1.74648 36.9118 1.05634C36.2006 0.352113 35.2974 0 34.2021 0C33.4625 0 32.8366 0.147887 32.3245 0.443662C31.8125 0.739437 31.3217 1.23944 30.8523 1.94366L14.8501 26.8944L6.78495 17.1761C5.9884 16.2465 4.9927 15.7817 3.79787 15.7817C2.7026 15.7817 1.79225 16.1338 1.06682 16.838C0.355605 17.5282 0 18.4014 0 19.4577C0 19.9366 0.0782332 20.3873 0.2347 20.8099C0.40539 21.2324 0.696987 21.6761 1.10949 22.1408L11.5003 34.4366C12.4106 35.4789 13.5557 36 14.9354 36Z" fill="#ffffff"/>
</svg>
