<svg width="7" height="4" viewBox="0 0 7 4" fill="none" xmlns="http://www.w3.org/2000/svg">
<path d="M6.71093 2.51047L4.18514 0.254739C4.0949 0.173988 3.98772 0.109923 3.86973 0.0662115C3.75174 0.0224998 3.62525 -1.25331e-07 3.49751 -1.36498e-07C3.36977 -1.47666e-07 3.24328 0.0224998 3.12529 0.0662114C3.0073 0.109923 2.90012 0.173988 2.80988 0.254739L0.284096 2.51047C0.14812 2.63278 0.0556844 2.78828 0.0184164 2.9574C-0.0188515 3.12652 0.000713294 3.3017 0.0746499 3.46092C0.148586 3.62013 0.273593 3.75626 0.433943 3.85218C0.594293 3.9481 0.782824 3.99953 0.975821 4L6.02856 4C6.22151 3.99938 6.40992 3.94763 6.56992 3.85133C6.72993 3.75502 6.85434 3.61848 6.9274 3.45899C7.00046 3.2995 7.01889 3.12424 6.98036 2.95539C6.94182 2.78654 6.84805 2.6317 6.71093 2.51047Z" fill="#A6A6A6"/>
</svg>
