<svg xmlns="http://www.w3.org/2000/svg" width="16" height="16" viewBox="0 0 16 16" fill="none">
<path opacity="0.3" d="M7.89355 11.9971C8.00781 11.9971 8.11572 11.9759 8.21729 11.9336C8.31885 11.887 8.41195 11.8172 8.49658 11.7241L13.0415 7.08398C13.1896 6.93587 13.2637 6.75814 13.2637 6.55078C13.2637 6.4069 13.2277 6.27783 13.1558 6.16357C13.0881 6.04508 12.9971 5.95199 12.8828 5.88428C12.7686 5.81657 12.6395 5.78271 12.4956 5.78271C12.2882 5.78271 12.1042 5.861 11.9434 6.01758L7.61426 10.4609H8.1792L3.84375 6.01758C3.68717 5.861 3.50309 5.78271 3.2915 5.78271C3.14762 5.78271 3.01855 5.81657 2.9043 5.88428C2.79004 5.95199 2.69906 6.04508 2.63135 6.16357C2.56364 6.27783 2.52979 6.4069 2.52979 6.55078C2.52979 6.65658 2.54883 6.75391 2.58691 6.84277C2.625 6.92741 2.68001 7.00781 2.75195 7.08398L7.29053 11.7305C7.47249 11.9082 7.6735 11.9971 7.89355 11.9971Z" fill="black"/>
</svg>