<svg width="16" height="16" viewBox="0 0 16 16" fill="none" xmlns="http://www.w3.org/2000/svg">
<path opacity="0.4" d="M0.703125 6.33594C0.703125 5.5026 0.859375 4.71875 1.17188 3.98438C1.48438 3.25 1.91927 2.60677 2.47656 2.05469C3.03385 1.4974 3.67708 1.0599 4.40625 0.742188C5.14062 0.424479 5.92708 0.265625 6.76562 0.265625C7.60417 0.265625 8.39062 0.424479 9.125 0.742188C9.85938 1.0599 10.5026 1.4974 11.0547 2.05469C11.612 2.60677 12.0469 3.25 12.3594 3.98438C12.6771 4.71875 12.8359 5.5026 12.8359 6.33594C12.8359 6.97135 12.7396 7.57812 12.5469 8.15625C12.3594 8.73438 12.0964 9.26562 11.7578 9.75L15.0234 13.0234C15.1328 13.138 15.2161 13.2682 15.2734 13.4141C15.3307 13.5599 15.3594 13.7109 15.3594 13.8672C15.3594 14.0911 15.3073 14.2917 15.2031 14.4688C15.099 14.651 14.9583 14.7943 14.7812 14.8984C14.6042 15.0078 14.401 15.0625 14.1719 15.0625C14.0156 15.0625 13.862 15.0339 13.7109 14.9766C13.5651 14.9245 13.4349 14.8411 13.3203 14.7266L10.0234 11.4297C9.55469 11.737 9.04688 11.9766 8.5 12.1484C7.95312 12.3203 7.375 12.4062 6.76562 12.4062C5.92708 12.4062 5.14062 12.25 4.40625 11.9375C3.67708 11.625 3.03385 11.1901 2.47656 10.6328C1.91927 10.0755 1.48438 9.42969 1.17188 8.69531C0.859375 7.96094 0.703125 7.17448 0.703125 6.33594ZM2.39844 6.33594C2.39844 6.9401 2.51042 7.50781 2.73438 8.03906C2.96354 8.5651 3.27865 9.02865 3.67969 9.42969C4.08073 9.82552 4.54427 10.138 5.07031 10.3672C5.59635 10.5911 6.16146 10.7031 6.76562 10.7031C7.36979 10.7031 7.9349 10.5911 8.46094 10.3672C8.98698 10.138 9.45052 9.82552 9.85156 9.42969C10.2526 9.02865 10.5651 8.5651 10.7891 8.03906C11.0182 7.50781 11.1328 6.9401 11.1328 6.33594C11.1328 5.73177 11.0182 5.16667 10.7891 4.64062C10.5651 4.11458 10.2526 3.65104 9.85156 3.25C9.45052 2.84896 8.98698 2.53646 8.46094 2.3125C7.9349 2.08854 7.36979 1.97656 6.76562 1.97656C6.16146 1.97656 5.59635 2.08854 5.07031 2.3125C4.54427 2.53646 4.08073 2.84896 3.67969 3.25C3.27865 3.65104 2.96354 4.11458 2.73438 4.64062C2.51042 5.16667 2.39844 5.73177 2.39844 6.33594Z" fill="black"/>
</svg>