<svg width="16" height="16" viewBox="0 0 16 16" fill="none" xmlns="http://www.w3.org/2000/svg">
<g clip-path="url(#clip0_1784_9501)">
<path d="M6.58675 6.58594C6.39025 6.76904 6.23265 6.98984 6.12334 7.23517C6.01402 7.4805 5.95524 7.74534 5.95051 8.01388C5.94577 8.28242 5.99517 8.54916 6.09576 8.7982C6.19635 9.04723 6.34607 9.27346 6.53598 9.46337C6.7259 9.65329 6.95212 9.80301 7.20116 9.9036C7.45019 10.0042 7.71694 10.0536 7.98548 10.0488C8.25402 10.0441 8.51885 9.98533 8.76419 9.87602C9.00952 9.76671 9.23032 9.6091 9.41342 9.4126" stroke="#475569" stroke-width="1.5" stroke-linecap="round" stroke-linejoin="round"/>
<path d="M7.15332 3.38536C7.43419 3.35037 7.71694 3.33256 7.99999 3.33203C12.6667 3.33203 14.6667 7.9987 14.6667 7.9987C14.3686 8.63678 13.9948 9.23665 13.5533 9.78536" stroke="#475569" stroke-width="1.5" stroke-linecap="round" stroke-linejoin="round"/>
<path d="M4.40683 4.40625C3.081 5.30933 2.02008 6.54976 1.3335 7.99958C1.3335 7.99958 3.3335 12.6662 8.00016 12.6662C9.27744 12.6697 10.5274 12.2963 11.5935 11.5929" stroke="#475569" stroke-width="1.5" stroke-linecap="round" stroke-linejoin="round"/>
<path d="M1.3335 1.33203L14.6668 14.6654" stroke="#475569" stroke-width="1.5" stroke-linecap="round" stroke-linejoin="round"/>
</g>
<defs>
<clipPath id="clip0_1784_9501">
<rect width="16" height="16" fill="white"/>
</clipPath>
</defs>
</svg>
