<svg width="36" height="36" viewBox="0 0 36 36" fill="none" xmlns="http://www.w3.org/2000/svg">
<rect width="36" height="36" rx="18" fill="#F1F5F9"/>
<path d="M8.21134 13.5455H10.3072L13.114 20.3963H13.2248L16.0317 13.5455H18.1275V23H16.4841V16.5046H16.3964L13.7834 22.9723H12.5554L9.94252 16.4908H9.8548V23H8.21134V13.5455ZM28.0853 16.7354H26.3587C26.3095 16.4523 26.2187 16.2015 26.0863 15.983C25.954 15.7614 25.7893 15.5736 25.5924 15.4197C25.3954 15.2659 25.1707 15.1504 24.9184 15.0735C24.6691 14.9935 24.3998 14.9535 24.1105 14.9535C23.5965 14.9535 23.141 15.0827 22.744 15.3413C22.347 15.5967 22.0361 15.9722 21.8115 16.4677C21.5868 16.9601 21.4745 17.5618 21.4745 18.2727C21.4745 18.996 21.5868 19.6054 21.8115 20.1009C22.0392 20.5933 22.3501 20.9657 22.744 21.218C23.141 21.4673 23.595 21.592 24.1059 21.592C24.389 21.592 24.6537 21.555 24.8999 21.4812C25.1492 21.4042 25.3723 21.2919 25.5693 21.1442C25.7693 20.9964 25.9371 20.8149 26.0725 20.5994C26.211 20.384 26.3064 20.1378 26.3587 19.8608L28.0853 19.87C28.0206 20.3194 27.8806 20.741 27.6652 21.1349C27.4528 21.5289 27.1743 21.8767 26.8296 22.1783C26.4849 22.4768 26.0817 22.7107 25.6201 22.88C25.1584 23.0462 24.646 23.1293 24.0828 23.1293C23.2518 23.1293 22.5101 22.9369 21.8576 22.5522C21.2052 22.1675 20.6912 21.612 20.3157 20.8857C19.9403 20.1593 19.7525 19.2884 19.7525 18.2727C19.7525 17.254 19.9418 16.383 20.3204 15.6598C20.6989 14.9335 21.2144 14.378 21.8669 13.9933C22.5193 13.6085 23.258 13.4162 24.0828 13.4162C24.6091 13.4162 25.0984 13.4901 25.5508 13.6378C26.0032 13.7855 26.4064 14.0025 26.7603 14.2887C27.1143 14.5719 27.4051 14.9196 27.6329 15.332C27.8637 15.7414 28.0145 16.2092 28.0853 16.7354Z" fill="#6B7787"/>
<path d="M8.21134 13.5455H10.3072L13.114 20.3963H13.2248L16.0317 13.5455H18.1275V23H16.4841V16.5046H16.3964L13.7834 22.9723H12.5554L9.94252 16.4908H9.8548V23H8.21134V13.5455ZM28.0853 16.7354H26.3587C26.3095 16.4523 26.2187 16.2015 26.0863 15.983C25.954 15.7614 25.7893 15.5736 25.5924 15.4197C25.3954 15.2659 25.1707 15.1504 24.9184 15.0735C24.6691 14.9935 24.3998 14.9535 24.1105 14.9535C23.5965 14.9535 23.141 15.0827 22.744 15.3413C22.347 15.5967 22.0361 15.9722 21.8115 16.4677C21.5868 16.9601 21.4745 17.5618 21.4745 18.2727C21.4745 18.996 21.5868 19.6054 21.8115 20.1009C22.0392 20.5933 22.3501 20.9657 22.744 21.218C23.141 21.4673 23.595 21.592 24.1059 21.592C24.389 21.592 24.6537 21.555 24.8999 21.4812C25.1492 21.4042 25.3723 21.2919 25.5693 21.1442C25.7693 20.9964 25.9371 20.8149 26.0725 20.5994C26.211 20.384 26.3064 20.1378 26.3587 19.8608L28.0853 19.87C28.0206 20.3194 27.8806 20.741 27.6652 21.1349C27.4528 21.5289 27.1743 21.8767 26.8296 22.1783C26.4849 22.4768 26.0817 22.7107 25.6201 22.88C25.1584 23.0462 24.646 23.1293 24.0828 23.1293C23.2518 23.1293 22.5101 22.9369 21.8576 22.5522C21.2052 22.1675 20.6912 21.612 20.3157 20.8857C19.9403 20.1593 19.7525 19.2884 19.7525 18.2727C19.7525 17.254 19.9418 16.383 20.3204 15.6598C20.6989 14.9335 21.2144 14.378 21.8669 13.9933C22.5193 13.6085 23.258 13.4162 24.0828 13.4162C24.6091 13.4162 25.0984 13.4901 25.5508 13.6378C26.0032 13.7855 26.4064 14.0025 26.7603 14.2887C27.1143 14.5719 27.4051 14.9196 27.6329 15.332C27.8637 15.7414 28.0145 16.2092 28.0853 16.7354Z" fill="#292A2A"/>
</svg>
