<svg width="32" height="32" viewBox="0 0 32 32" fill="none" xmlns="http://www.w3.org/2000/svg">
<circle cx="16" cy="16" r="16" fill="#E5E7EB"/>
<path d="M22 17.3346V12.0013C22 11.6477 21.8595 11.3085 21.6095 11.0585C21.3594 10.8084 21.0203 10.668 20.6667 10.668H11.3333C10.9797 10.668 10.6406 10.8084 10.3905 11.0585C10.1405 11.3085 10 11.6477 10 12.0013V21.3346C10 21.6883 10.1405 22.0274 10.3905 22.2774C10.6406 22.5275 10.9797 22.668 11.3333 22.668H16.6667" stroke="#0F172A" stroke-width="1.5" stroke-linecap="round" stroke-linejoin="round"/>
<path d="M18.666 9.33203V11.9987" stroke="#0F172A" stroke-width="1.5" stroke-linecap="round" stroke-linejoin="round"/>
<path d="M13.334 9.33203V11.9987" stroke="#0F172A" stroke-width="1.5" stroke-linecap="round" stroke-linejoin="round"/>
<path d="M10 14.668H22" stroke="#0F172A" stroke-width="1.5" stroke-linecap="round" stroke-linejoin="round"/>
<path d="M18.666 21.3333L19.9993 22.6667L22.666 20" stroke="#0F172A" stroke-width="1.5" stroke-linecap="round" stroke-linejoin="round"/>
</svg>
