<svg width="32" height="32" viewBox="0 0 32 32" fill="none" xmlns="http://www.w3.org/2000/svg">
<circle cx="16" cy="16" r="16" fill="#E5E7EB"/>
<path d="M22 13.0013V12.0013C22 11.6477 21.8595 11.3085 21.6095 11.0585C21.3594 10.8084 21.0203 10.668 20.6667 10.668H11.3333C10.9797 10.668 10.6406 10.8084 10.3905 11.0585C10.1405 11.3085 10 11.6477 10 12.0013V21.3346C10 21.6883 10.1405 22.0274 10.3905 22.2774C10.6406 22.5275 10.9797 22.668 11.3333 22.668H13.6667" stroke="#0F172A" stroke-width="1.5" stroke-linecap="round" stroke-linejoin="round"/>
<path d="M18.666 9.33203V11.9987" stroke="#0F172A" stroke-width="1.5" stroke-linecap="round" stroke-linejoin="round"/>
<path d="M13.334 9.33203V11.9987" stroke="#0F172A" stroke-width="1.5" stroke-linecap="round" stroke-linejoin="round"/>
<path d="M10 14.668H13.3333" stroke="#0F172A" stroke-width="1.5" stroke-linecap="round" stroke-linejoin="round"/>
<path d="M19.666 19.6654L18.666 18.832V17.332" stroke="#0F172A" stroke-width="1.5" stroke-linecap="round" stroke-linejoin="round"/>
<path d="M22.666 18.668C22.666 19.7288 22.2446 20.7463 21.4944 21.4964C20.7443 22.2465 19.7269 22.668 18.666 22.668C17.6051 22.668 16.5877 22.2465 15.8376 21.4964C15.0874 20.7463 14.666 19.7288 14.666 18.668C14.666 17.6071 15.0874 16.5897 15.8376 15.8395C16.5877 15.0894 17.6051 14.668 18.666 14.668C19.7269 14.668 20.7443 15.0894 21.4944 15.8395C22.2446 16.5897 22.666 17.6071 22.666 18.668Z" stroke="#0F172A" stroke-width="1.5" stroke-linecap="round" stroke-linejoin="round"/>
</svg>
