<svg width="40" height="40" viewBox="0 0 40 40" fill="none" xmlns="http://www.w3.org/2000/svg">
<rect width="40" height="40" rx="20" fill="#DFE6EF"/>
<path d="M18.304 18.7354H16.5775C16.5282 18.4523 16.4374 18.2015 16.3051 17.983C16.1727 17.7614 16.0081 17.5736 15.8111 17.4197C15.6142 17.2659 15.3895 17.1504 15.1371 17.0735C14.8878 16.9935 14.6185 16.9535 14.3292 16.9535C13.8153 16.9535 13.3598 17.0827 12.9628 17.3413C12.5657 17.5967 12.2549 17.9722 12.0302 18.4677C11.8056 18.9601 11.6932 19.5618 11.6932 20.2727C11.6932 20.996 11.8056 21.6054 12.0302 22.1009C12.258 22.5933 12.5688 22.9657 12.9628 23.218C13.3598 23.4673 13.8137 23.592 14.3246 23.592C14.6078 23.592 14.8724 23.555 15.1187 23.4812C15.3679 23.4042 15.5911 23.2919 15.788 23.1442C15.9881 22.9964 16.1558 22.8149 16.2912 22.5994C16.4297 22.384 16.5251 22.1378 16.5775 21.8608L18.304 21.87C18.2394 22.3194 18.0994 22.741 17.8839 23.1349C17.6716 23.5289 17.393 23.8767 17.0483 24.1783C16.7036 24.4768 16.3005 24.7107 15.8388 24.88C15.3772 25.0462 14.8647 25.1293 14.3015 25.1293C13.4706 25.1293 12.7289 24.9369 12.0764 24.5522C11.4239 24.1675 10.91 23.612 10.5345 22.8857C10.159 22.1593 9.97128 21.2884 9.97128 20.2727C9.97128 19.254 10.1606 18.383 10.5391 17.6598C10.9177 16.9335 11.4332 16.378 12.0856 15.9933C12.7381 15.6085 13.4767 15.4162 14.3015 15.4162C14.8278 15.4162 15.3172 15.4901 15.7696 15.6378C16.222 15.7855 16.6252 16.0025 16.9791 16.2887C17.333 16.5719 17.6239 16.9196 17.8516 17.332C18.0824 17.7414 18.2332 18.2092 18.304 18.7354ZM19.8725 15.5455H21.9684L24.7752 22.3963H24.886L27.6928 15.5455H29.7887V25H28.1452V18.5046H28.0575L25.4446 24.9723H24.2166L21.6036 18.4908H21.5159V25H19.8725V15.5455Z" fill="#6B7787"/>
<path d="M18.304 18.7354H16.5775C16.5282 18.4523 16.4374 18.2015 16.3051 17.983C16.1727 17.7614 16.0081 17.5736 15.8111 17.4197C15.6142 17.2659 15.3895 17.1504 15.1371 17.0735C14.8878 16.9935 14.6185 16.9535 14.3292 16.9535C13.8153 16.9535 13.3598 17.0827 12.9628 17.3413C12.5657 17.5967 12.2549 17.9722 12.0302 18.4677C11.8056 18.9601 11.6932 19.5618 11.6932 20.2727C11.6932 20.996 11.8056 21.6054 12.0302 22.1009C12.258 22.5933 12.5688 22.9657 12.9628 23.218C13.3598 23.4673 13.8137 23.592 14.3246 23.592C14.6078 23.592 14.8724 23.555 15.1187 23.4812C15.3679 23.4042 15.5911 23.2919 15.788 23.1442C15.9881 22.9964 16.1558 22.8149 16.2912 22.5994C16.4297 22.384 16.5251 22.1378 16.5775 21.8608L18.304 21.87C18.2394 22.3194 18.0994 22.741 17.8839 23.1349C17.6716 23.5289 17.393 23.8767 17.0483 24.1783C16.7036 24.4768 16.3005 24.7107 15.8388 24.88C15.3772 25.0462 14.8647 25.1293 14.3015 25.1293C13.4706 25.1293 12.7289 24.9369 12.0764 24.5522C11.4239 24.1675 10.91 23.612 10.5345 22.8857C10.159 22.1593 9.97128 21.2884 9.97128 20.2727C9.97128 19.254 10.1606 18.383 10.5391 17.6598C10.9177 16.9335 11.4332 16.378 12.0856 15.9933C12.7381 15.6085 13.4767 15.4162 14.3015 15.4162C14.8278 15.4162 15.3172 15.4901 15.7696 15.6378C16.222 15.7855 16.6252 16.0025 16.9791 16.2887C17.333 16.5719 17.6239 16.9196 17.8516 17.332C18.0824 17.7414 18.2332 18.2092 18.304 18.7354ZM19.8725 15.5455H21.9684L24.7752 22.3963H24.886L27.6928 15.5455H29.7887V25H28.1452V18.5046H28.0575L25.4446 24.9723H24.2166L21.6036 18.4908H21.5159V25H19.8725V15.5455Z" fill="#292A2A"/>
</svg>
