<svg width="32" height="32" viewBox="0 0 32 32" fill="none" xmlns="http://www.w3.org/2000/svg">
<circle cx="16" cy="16" r="16" fill="#E5E7EB"/>
<path d="M18.0007 9.33203H14.0007C13.6325 9.33203 13.334 9.63051 13.334 9.9987V11.332C13.334 11.7002 13.6325 11.9987 14.0007 11.9987H18.0007C18.3688 11.9987 18.6673 11.7002 18.6673 11.332V9.9987C18.6673 9.63051 18.3688 9.33203 18.0007 9.33203Z" stroke="#0F172A" stroke-width="1.5" stroke-linecap="round" stroke-linejoin="round"/>
<path d="M18.666 10.668H19.9993C20.353 10.668 20.6921 10.8084 20.9422 11.0585C21.1922 11.3085 21.3327 11.6477 21.3327 12.0013V21.3346C21.3327 21.6883 21.1922 22.0274 20.9422 22.2774C20.6921 22.5275 20.353 22.668 19.9993 22.668H11.9993C11.6457 22.668 11.3066 22.5275 11.0565 22.2774C10.8065 22.0274 10.666 21.6883 10.666 21.3346V12.0013C10.666 11.6477 10.8065 11.3085 11.0565 11.0585C11.3066 10.8084 11.6457 10.668 11.9993 10.668H13.3327" stroke="#0F172A" stroke-width="1.5" stroke-linecap="round" stroke-linejoin="round"/>
<path d="M14 15.9987V15.332H18V15.9987" stroke="#0F172A" stroke-width="1.2" stroke-linecap="round" stroke-linejoin="round"/>
<path d="M15.334 19.332H16.6673" stroke="#0F172A" stroke-width="1.5" stroke-linecap="round" stroke-linejoin="round"/>
<path d="M16 15.332V19.332" stroke="#0F172A" stroke-width="1.2" stroke-linecap="round" stroke-linejoin="round"/>
</svg>
