<svg width="14" height="14" viewBox="0 0 14 14" fill="none" xmlns="http://www.w3.org/2000/svg">
<path fill-rule="evenodd" clip-rule="evenodd" d="M1.43728 9.02224C1.98426 8.47526 2.72613 8.16797 3.49967 8.16797H6.99967C7.77322 8.16797 8.51509 8.47526 9.06207 9.02224C9.60905 9.56922 9.91634 10.3111 9.91634 11.0846V12.2513C9.91634 12.5735 9.65518 12.8346 9.33301 12.8346C9.01084 12.8346 8.74967 12.5735 8.74967 12.2513V11.0846C8.74967 10.6205 8.5653 10.1754 8.23711 9.8472C7.90892 9.51901 7.4638 9.33464 6.99967 9.33464H3.49967C3.03555 9.33464 2.59043 9.51901 2.26224 9.8472C1.93405 10.1754 1.74967 10.6205 1.74967 11.0846V12.2513C1.74967 12.5735 1.48851 12.8346 1.16634 12.8346C0.844175 12.8346 0.583008 12.5735 0.583008 12.2513V11.0846C0.583008 10.3111 0.890299 9.56922 1.43728 9.02224Z" fill="white"/>
<path fill-rule="evenodd" clip-rule="evenodd" d="M5.24967 2.33464C4.28318 2.33464 3.49967 3.11814 3.49967 4.08464C3.49967 5.05113 4.28318 5.83464 5.24967 5.83464C6.21617 5.83464 6.99967 5.05113 6.99967 4.08464C6.99967 3.11814 6.21617 2.33464 5.24967 2.33464ZM2.33301 4.08464C2.33301 2.4738 3.63884 1.16797 5.24967 1.16797C6.86051 1.16797 8.16634 2.4738 8.16634 4.08464C8.16634 5.69547 6.86051 7.0013 5.24967 7.0013C3.63884 7.0013 2.33301 5.69547 2.33301 4.08464Z" fill="white"/>
<path fill-rule="evenodd" clip-rule="evenodd" d="M11.0833 4.08203C11.4055 4.08203 11.6667 4.3432 11.6667 4.66536V8.16536C11.6667 8.48753 11.4055 8.7487 11.0833 8.7487C10.7612 8.7487 10.5 8.48753 10.5 8.16536V4.66536C10.5 4.3432 10.7612 4.08203 11.0833 4.08203Z" fill="white"/>
<path fill-rule="evenodd" clip-rule="evenodd" d="M8.75 6.41536C8.75 6.0932 9.01117 5.83203 9.33333 5.83203H12.8333C13.1555 5.83203 13.4167 6.0932 13.4167 6.41536C13.4167 6.73753 13.1555 6.9987 12.8333 6.9987H9.33333C9.01117 6.9987 8.75 6.73753 8.75 6.41536Z" fill="white"/>
</svg>
